<?xml version="1.0" encoding="UTF-8"?>
<!-- Generator: Adobe Illustrator 27.1.1, SVG Export Plug-In . SVG Version: 6.00 Build 0)  -->
<svg version="1.1" id="Layer_9" xmlns="http://www.w3.org/2000/svg" xmlns:xlink="http://www.w3.org/1999/xlink" x="0px" y="0px" viewBox="0 0 200 200" style="enable-background:new 0 0 200 200;" xml:space="preserve">
<style type="text/css">
	.st0{fill:#202020;}
	.st1{fill:none;stroke:#000000;stroke-width:2;stroke-linecap:round;stroke-miterlimit:10;}
	.st2{stroke:#000000;stroke-width:0.1;stroke-miterlimit:10;}
	.st3{stroke:#000000;stroke-miterlimit:10;}
	.st4{fill:none;stroke:#000000;stroke-width:0.25;stroke-miterlimit:10;}
	.st5{fill:#2E5C62;}
	.st6{fill:#55A4AB;}
	.st7{fill:#FFFFFF;}
	.st8{stroke:#000000;stroke-width:0.2;stroke-miterlimit:10;}
</style>
<g>
	<g>
		<g>
			<path class="st0" d="M113.8,69.1c-0.3,1.5-0.4,2.6-0.2,4.4c0,0.2,0.1,0.6,0.1,1.1c0,0.2,0.1,0.5,0.1,0.7c0.1,0.6,0.2,1.3,0.4,2     c0.6,2.8,1.5,6.1,3,9c1.5,2.9,3.6,5.4,5.5,6.7c1,0.7,1.8,1.1,2.4,1.4c0.3,0.2,0.5,0.2,0.7,0.3c0.2,0.1,0.3,0.1,0.3,0.1     s0.1,0,0.3,0.1c0.2,0,0.4,0.2,0.7,0.2c0.3,0.1,0.7,0.2,1.2,0.3c0.5,0.1,1,0.1,1.6,0.2c2.3,0.1,5.5-0.1,8.6-1.4     c3-1.3,5.8-3.8,7.3-6.2c0.7-1,1.2-1.9,1.4-2.3c0.8-1.7,1-2.7,1-4.3c-0.7,1.4-1.3,2.2-2,3.8c-0.2,0.4-0.7,1.3-1.3,2.2     c-1.5,2.3-4,4.5-6.8,5.7c-2.8,1.2-5.9,1.5-8.1,1.4c-0.5-0.1-1-0.1-1.5-0.2c-0.4-0.1-0.8-0.2-1.1-0.2c-0.3-0.1-0.5-0.2-0.7-0.2     c-0.2-0.1-0.2-0.1-0.2-0.1c0,0-0.3-0.1-0.9-0.4c-0.6-0.2-1.4-0.6-2.2-1.3c-1.8-1.2-3.8-3.5-5.2-6.3c-1.4-2.8-2.4-6-2.9-8.7     c-0.1-0.7-0.3-1.4-0.4-1.9c0-0.3-0.1-0.5-0.1-0.7c-0.1-0.4-0.1-0.8-0.1-1C114.5,71.6,114.2,70.6,113.8,69.1z"/>
		</g>
	</g>
</g>
<path d="M113.8,68.8c0,0-1-8.9,0.5-10.7s2.5-2.5,5.7-1.8c3.2,0.6,7.3,3.4,11.6-0.2c0,0,2.4-3,4-3.4c2-0.5,4.7-0.5,5.8,1.6  c1.1,2.2,1,10.8,6.4,14.4c0,0,1-3.6,4.4-3.5c0,0,2.4-11.6,0.9-15.6s-2.9-5-4.9-6.4c-1.4-1-5.8-7.5-12.2-7.1s-8.8,3-10.6,3.1  s-9.3-2.9-13.9,2.5c-3.7,4.4-2.7,8.7-2.7,10c0,2.4-1.5,4.6-1.2,8.5C107.9,64,110.7,67.9,113.8,68.8z"/>
<ellipse cx="120.6" cy="73.2" rx="1.1" ry="1.5"/>
<ellipse cx="132.7" cy="72.5" rx="1.2" ry="1.5"/>
<g>
	<g>
		<g>
			<path class="st0" d="M124.8,70.7c-0.4,1.5-0.6,2.5-0.7,4.3c0,0.3,0,0.8-0.1,1.8c0,0.5,0,1.7,0,1.7s0,1-0.1,1.5     c0,0.7-0.1,1.2-0.2,1.6c-0.1,0.4-0.2,0.7-0.2,1.1c0,0.4,0.2,0.8,0.5,1c0.2,0.2,0.4,0.3,0.6,0.4c0.4,0.2,0.8,0.3,1.1,0.3     c0.7,0.1,1.4-0.1,2.1-0.4c-0.8,0-1.4-0.2-1.9-0.4c-0.3-0.1-0.6-0.3-0.8-0.4c-0.1-0.1-0.3-0.2-0.4-0.3c-0.1-0.1,0,0-0.1-0.1     c0-0.1,0.1-0.3,0.2-0.8c0.1-0.5,0.2-1.1,0.2-1.8c0-0.6,0-1.5,0-1.5s0-1.2,0-1.7c0-1,0-1.5,0-1.8     C125.3,73.3,125.2,72.2,124.8,70.7z"/>
		</g>
	</g>
</g>
<g>
	<g>
		<g>
			<path class="st0" d="M125.3,86.6c0.2,0.5,0.4,0.7,0.8,0.8c0.2,0.1,0.9,0.2,1.6,0.2c0.7,0,1.2-0.1,1.2-0.1s0.6-0.1,1.2-0.3     c0.6-0.2,1.3-0.6,1.4-0.8c0.4-0.3,0.4-0.6,0.3-1.1c-0.5,0-0.8,0-1.1,0.2c-0.1,0.1-0.6,0.4-1.1,0.6c-0.5,0.2-1,0.3-1,0.3     s-0.5,0.1-1,0.1c-0.6,0-1.2-0.1-1.4-0.1C126,86.2,125.8,86.4,125.3,86.6z"/>
		</g>
	</g>
</g>
<g>
	<g>
		<g>
			<path class="st0" d="M113.7,69.5c-0.6-0.4-1.4-0.8-2.2-0.4c-0.8,0.4-1.3,1.1-1.6,2.1c-0.1,0.3-0.2,0.9-0.1,2     c0,0.3,0.1,0.7,0.2,1.1c0.1,0.4,0.2,0.7,0.2,0.7s0.1,0.2,0.2,0.6c0.1,0.3,0.3,0.7,0.5,0.9c0.7,1.2,1.2,1.9,1.5,2.3     c1,1.5,1.9,2.3,3.4,2.9c-1-1.2-1.4-2.1-2.4-3.5c-0.2-0.4-0.7-1.1-1.4-2.2c-0.1-0.2-0.3-0.6-0.4-0.8c-0.1-0.3-0.2-0.5-0.2-0.5     s-0.1-0.3-0.2-0.6c-0.1-0.3-0.2-0.7-0.2-0.9c-0.1-0.9,0-1.3,0.1-1.6c0.2-0.7,0.5-1.3,0.9-1.6C112.3,69.5,112.9,69.4,113.7,69.5z"/>
		</g>
	</g>
</g>
<g>
	<g>
		<g>
			<path class="st0" d="M153.1,68.5c-0.5-0.1-0.8-0.1-1.3,0.2c-0.2,0.2-0.9,0.8-1.2,1.5c-0.4,0.7-0.6,1.3-0.6,1.3s-0.2,0.6-0.4,1.4     c-0.2,0.7-0.2,1.5-0.2,1.8c0,0.5,0.1,0.8,0.4,1.2c0.2-0.4,0.4-0.7,0.4-1.1c0-0.3,0.1-1,0.2-1.7c0.1-0.7,0.4-1.3,0.4-1.3     s0.2-0.6,0.5-1.2c0.3-0.6,0.8-1.1,1-1.2C152.6,69,152.7,68.8,153.1,68.5z"/>
		</g>
	</g>
</g>
<g>
	<g>
		<g>
			<path class="st0" d="M150.5,72.1c0.3,0,0.4,0.1,0.5,0c0.1,0,0.2-0.2,0.4-0.2c0.2-0.1,0.4-0.1,0.4-0.1c0,0,0.8,0,1,0     c0.2,0,0.3-0.1,0.5-0.3c-0.1-0.3-0.2-0.4-0.4-0.4c-0.1,0-0.4,0-0.7,0c-0.3,0-0.5,0-0.5,0s-0.3,0-0.6,0.1     c-0.3,0.1-0.6,0.3-0.7,0.4C150.4,71.7,150.4,71.9,150.5,72.1z"/>
		</g>
	</g>
</g>
<g>
	<g>
		<g>
			<path class="st0" d="M111.7,73.1c0.3,0.1,0.3,0.3,0.4,0.3c0.1-0.1,0.9,0.9,0.9,0.9c0,0,0.7,0.9,0.7,1.1c0.1,0.2,0.2,0.2,0.5,0.3     c0.2-0.2,0.3-0.4,0.2-0.7c0-0.1-0.2-0.5-0.4-0.8c-0.2-0.3-0.4-0.5-0.4-0.5s-0.2-0.2-0.4-0.5c-0.2-0.2-0.6-0.6-0.8-0.6     C112.1,72.6,111.7,72.8,111.7,73.1z"/>
		</g>
	</g>
</g>
<g>
	<g>
		<g>
			<path class="st0" d="M126.7,94.9c0.1,0.3,0,0.5-0.1,0.6c-0.1,0.1-0.1,0.2-0.1,0.3c0,0.1,0.1,0.7,0,1.2c0,0.5-0.1,1-0.1,1     s-0.1,0.5-0.3,1c-0.2,0.5-0.5,1-0.6,1.2c-0.2,0.3-0.1,0.7,0.3,1.2c0.6-0.1,0.9-0.1,1.1-0.4c0.1-0.2,0.5-0.8,0.7-1.4     c0.2-0.6,0.4-1.2,0.4-1.2s0.1-0.6,0.2-1.2c0-0.7,0-1.3-0.1-1.6c-0.1-0.3-0.2-0.5-0.5-0.6C127.3,94.7,127,94.7,126.7,94.9z"/>
		</g>
	</g>
</g>
<g>
	<g>
		<g>
			<path class="st0" d="M147.7,88.5c-0.5,0.5-0.8,0.9-0.8,1.5c0,0.7,0,4.1,0,4.1s0,3.4,0,4.1c0,0.6,0.3,1,0.8,1.5     c0.5-0.5,0.8-0.9,0.8-1.5c0-0.7,0-4.1,0-4.1s0-3.4,0-4.1C148.5,89.3,148.2,89,147.7,88.5z"/>
		</g>
	</g>
</g>
<g>
	<g>
		<g>
			<path class="st0" d="M125.3,97.6c0.1,0,0.1,0,0.1,0c0.3,0.1,0.6,0.3,0.7,0.6c0.1,0.3,0,0.7-0.3,1.1c0,0-0.1,0.1-0.1,0.1     c-0.8,0.2-1.6,0.6-2.2,1.2c-0.4,0.5-0.7,0.9-1,1.6c-0.3,0.7-0.5,1.3-0.7,1.9c-0.1,0.6-0.2,1.3-0.1,1.9c0.1,0.6,0.3,1.3,0.5,2     c0.4,1.4,0.9,2.7,1.5,4l2.2,3.8c0.7,1.3,1.4,2.6,2.2,3.8l0.2,0.4c0,0,0,0,0,0l0,0l0.1-0.4l0.1-0.6c0.2-0.7,0.4-1.5,0.6-2.2l0.3-1     l0-0.1v0c0,0,0,0,0,0c-0.5-0.5-1-1.1-1.5-1.8c-0.7-0.9-1.2-1.9-1.7-2.9l-0.4-0.7c-0.1-0.3-0.3-0.6-0.4-0.8     c-0.2-0.5-0.4-1.1-0.5-1.6l-0.2-0.8l-0.1-0.3l-0.1-0.5l-0.2-1c0,0-0.1-0.7-0.2-1.7c0-0.3,0-0.5,0-0.8c0-0.3,0-0.5,0-0.8     c0-0.6,0.1-1.2,0.4-1.8c0.4-0.8,0.8-1.3,1.1-1.4c0.3-0.2,0.4-0.1,0.4,0c0,0.1-0.2,0.3-0.3,0.6c-0.1,0.3-0.2,0.7-0.3,1.2     c0,0,0,0.2,0,0.6c0,0.4,0.1,1,0.2,1.6c0.1,0.6,0.3,1.2,0.4,1.6c0.1,0.5,0.2,0.8,0.2,0.8l0.2,0.9l0.1,0.4l0.1,0.5l0.2,0.7     c0.1,0.5,0.3,0.9,0.5,1.4c0.1,0.4,0.4,0.9,0.6,1.3c0.5,0.9,0.9,1.7,1.5,2.5c0.4,0.6,0.9,1.1,1.3,1.6c0.2,0.2,0.4,0.6,0.5,0.9     c0,0.2,0,0.4,0,0.5c0,0.1,0,0.2-0.1,0.3l0,0.1l-0.3,1.1c-0.2,0.7-0.4,1.4-0.6,2.1l-0.1,0.5l-0.1,0.3l0,0.1l0,0.3     c-0.1,0.4-0.1,0.7-0.1,1.2c0,0.2,0,0.4,0,0.6l0,0.8l0.1,1.8l0,0.4l0,0.2l0,0.1c0,0,0,0.1,0,0l-0.3-0.4l-1.1-1.6l-1.2-1.7l-1-1.5     c-0.8-1.3-1.5-2.6-2.2-3.9l-2.2-3.9c-0.7-1.4-1.2-2.8-1.7-4.3c-0.2-0.7-0.5-1.4-0.6-2.3c-0.1-0.8-0.1-1.7,0.1-2.5     c0.2-0.8,0.5-1.5,0.8-2.3c0.3-0.7,0.7-1.5,1.3-2.1C123,98.5,124.2,97.9,125.3,97.6z"/>
		</g>
	</g>
</g>
<g>
	<g>
		<g>
			<path class="st0" d="M129.5,128c0,0,0-0.1,0-0.1c0.2-0.4,0.9-1.1,1.7-0.1c0,0,0.1,0.1,0.1,0.1c0.1,1.1,0.1,2,0.3,3l0.2,1.2l0,0     c0,0,0,0,0,0l0.4-0.9l0.8-1.6c0,0,1.4-2.5,2.5-4.1c1.8-2.9,1.6-1.5,0.9,0.5c0.1-0.1-0.4,1.1-0.9,2.3c-0.5,1.2-1,2.4-1,2.4     l-0.6,1.3l-0.6,1.2l-1,2.1l-1.2,2.7l-0.1,0.2c0,0,0,0.1,0,0.1l0-0.1l-0.1-0.4L131,137l-0.3-1.4l-0.8-4.4     C129.7,130.2,129.5,129,129.5,128z"/>
		</g>
	</g>
</g>
<g>
	<g>
		<g>
			<path class="st0" d="M95.9,132.7c0.9-1.9,1.4-3.1,2-5.4c0.1-0.4,0.3-1,0.6-2.3c0.5-1.7,1.4-4.6,2.4-7c0.2-0.6,0.5-1.2,0.7-1.7     c0.2-0.5,0.4-1,0.7-1.3c0.4-0.7,0.7-1.2,0.7-1.2s0.2-0.4,0.6-1c0.2-0.3,0.4-0.7,0.7-1c0.3-0.4,0.6-0.8,1-1.2     c0.4-0.4,0.8-0.8,1.2-1.2c0.5-0.4,1-0.7,1.5-1.1c1-0.7,2-1.3,2.9-1.8c1.6-0.9,2.6-1.3,3.1-1.6c2.1-1,3.3-1.7,5-2.8     c-2.1,0.1-3.5,0.4-5.7,1.4c-0.5,0.3-1.6,0.7-3.2,1.6c-0.9,0.5-2,1.1-3,1.9c-0.5,0.3-1,0.8-1.5,1.1c-0.5,0.5-1,0.9-1.4,1.3     c-0.4,0.5-0.7,0.9-1.1,1.3c-0.3,0.4-0.5,0.8-0.8,1.1c-0.4,0.6-0.7,1-0.7,1s-0.3,0.5-0.7,1.3c-0.4,0.8-1,1.9-1.4,3.1     c-1,2.5-2,5.4-2.5,7.2c-0.4,1.3-0.5,2-0.6,2.4C95.8,129.2,95.7,130.6,95.9,132.7z"/>
		</g>
	</g>
</g>
<g>
	<g>
		<g>
			<path class="st0" d="M155.4,104.2c0,0-0.1,0-0.1-0.1c-0.3-0.3-0.8-1.1,0.3-1.7c0,0,0.1,0,0.2,0c1,0.2,2.1,0.4,3.1,0.7     c3.2,0.8,6.4,1.8,9.5,3c3.1,1.3,6.1,2.8,8.8,4.9l2,1.6l1.8,1.8l1.6,2.1c0.4,0.7,0.9,1.5,1.3,2.2c1.5,3,2.6,6.2,3.5,9.4     c1.8,6.4,2.9,12.9,3.7,19.5c0.2,1.6,0.4,3.3,0.6,4.9l0.4,4.9l0.2,2.2c0,0,0,0.7,0,1.7c0,1-0.1,2.2-0.2,3.2c-0.2,3.4-0.7,2.1-1,0     c0,0.1-0.2-1.1-0.3-2.4c-0.2-1.3-0.3-2.6-0.3-2.6l-0.2-3.1c-0.3-3.2-0.6-6.4-1-9.6c-0.8-6.4-2-12.7-3.7-18.9     c-0.9-3.1-2-6.1-3.4-8.9c-1.4-2.8-3.5-5-6.1-6.9c-5.1-3.7-11.2-5.9-17.4-7.4C157.4,104.6,156.4,104.4,155.4,104.2z"/>
		</g>
	</g>
</g>
<g>
	<g>
		<g>
			<path class="st0" d="M110.4,132.7c-0.4,0.9-0.6,1.4-0.4,2.3c0.2,1,0.9,6,0.9,6s0.8,5,0.9,6c0.2,0.9,0.5,1.4,1.1,2.1     c0.4-0.9,0.6-1.4,0.4-2.3c-0.2-1-0.9-6-0.9-6s-0.8-5-0.9-6C111.3,133.8,111,133.3,110.4,132.7z"/>
		</g>
	</g>
</g>
<g>
	<g>
		<g>
			<path class="st0" d="M129.5,153.3c0,0,0-0.1,0.1-0.1c0.4-0.3,1.2-0.7,1.7,0.5c0,0,0,0.1,0,0.2c-0.3,1-0.5,2-0.8,3     c-0.8,3.3-1.5,6.7-1.7,10c-0.1,1.7-0.2,3.4,0.1,4.9c0,0.2,0,0.4,0.1,0.6l0.1,0.4c0,0,0,0,0,0l0.2,0l2.5,0.4     c6.8,1.1,13.6,2,20.4,2.8c3.4,0.4,6.8,0.7,10.2,1c3.4,0.3,6.8,0.5,10.2,0.5c3.4,0,6.8-0.1,10.1-0.7l0.9-0.2     c0.1,0,0.3-0.1,0.4-0.1l0.8-0.2c0,0,0.2,0,0.4-0.1c0.3-0.1,0.6-0.2,1.1-0.3c0.8-0.3,1.9-0.7,2.5-1.4c0.5-0.5,0.7-1,0.8-1.3     c0.1-0.3,0.1-0.4,0.3-0.3c0.1,0.1,0.2,0.4,0.2,0.8c0,0.4-0.2,1-0.5,1.5c0.1-0.1-0.8,1.1-2,1.8c-1.2,0.7-2.5,1.1-2.5,1.1l-0.9,0.3     c-0.2,0-0.3,0.1-0.5,0.1l-0.6,0.1c-0.4,0.1-0.9,0.2-1.3,0.2c-3.4,0.5-6.9,0.6-10.3,0.6c-6.8-0.1-13.6-0.8-20.3-1.5     c-6.7-0.8-13.5-1.7-20.2-2.8l-2.6-0.4l-0.6-0.1c-0.2,0-0.5,0-0.5-0.3l-0.3-1.1c-0.1-0.5-0.2-0.9-0.2-1.3c-0.2-1.8-0.2-3.5,0-5.3     c0.3-3.5,1-6.8,1.8-10.1C129,155.3,129.2,154.3,129.5,153.3z"/>
		</g>
	</g>
</g>
<g>
	<g>
		<g>
			<path class="st0" d="M147.4,98.1c-0.1,1-0.2,1.9-0.4,2.6c0,0.1-0.1,0.2-0.1,0.2l-0.1,0.2c-0.1,0.2-0.3,0.4-0.4,0.5     c-0.3,0.4-0.6,0.8-0.9,1.3c-0.2,0.3-0.6,0.9-1.4,2c-1.7,2.2-4.7,6.1-7.8,8.4l-0.4,0.3l-0.3,0.2l-0.2,0.1l-0.1,0.1l0,0.1     c0,0.4,0,0.7,0,1.1c0,0.5,0,1,0.1,1.4c0,0.9,0.1,1.7,0.2,2.4c0.2,1.4,0.4,2.3,0.4,2.3s0,0.2,0.1,0.5c0,0.2,0.1,0.4,0.2,0.6     c0,0.1,0.1,0.1,0.1,0.2c0,0.1,0.1,0.2,0.1,0.3c0.1,0.2,0.3,0.4,0.4,0.6c0.1,0.2,0.3,0.4,0.5,0.7l0.1,0.2c0,0,0.1-0.1,0.2-0.1     c0.1-0.1,0.2-0.2,0.3-0.3c0.2-0.2,0.5-0.5,0.7-0.7c0.2-0.2,0.3-0.4,0.5-0.6c0.5-0.6,1.1-1.2,1.7-1.9c0.6-0.7,1.2-1.4,1.9-2.1     l0.5-0.5l0.5-0.5c0.3-0.4,0.7-0.7,1-1.1c1.4-1.4,2.6-2.9,3.6-4.1c1.1-1.5,1.8-2.5,2.1-3c1.2-2.1,1.6-3.6,1.6-5.7     c-1,1.8-1.7,2.9-2.9,4.9c-0.3,0.5-0.9,1.4-2,2.9c-0.9,1.2-2.2,2.6-3.5,4c-0.3,0.3-0.7,0.7-1,1l-0.5,0.5l-0.5,0.6     c-0.6,0.7-1.3,1.5-1.9,2.1c-0.6,0.7-1.2,1.3-1.7,1.9c-0.4,0.4-0.2,0.3-0.3,0.3l0,0l0,0c0-0.1,0-0.1-0.1-0.1     c-0.1-0.2-0.1-0.4-0.2-0.5c-0.1-0.3-0.1-0.4-0.1-0.4s-0.2-0.8-0.3-2.1c-0.1-0.7-0.1-1.4-0.2-2.3c0-0.4,0-0.9,0-1.4l0-0.4     c0,0,0,0,0,0c0,0,0,0,0,0l0.3-0.2c3.5-2.6,6.4-6.5,8.2-8.8c0.8-1.1,1.2-1.7,1.4-2c0.3-0.5,0.6-1,0.9-1.4c0.1-0.2,0.2-0.4,0.3-0.7     c0.1-0.1,0.1-0.3,0.2-0.5c0-0.2,0-0.3,0-0.4C148.1,99.9,147.7,99.1,147.4,98.1z"/>
		</g>
	</g>
</g>
<g>
	<g>
		<g>
			<path class="st0" d="M148.2,98.1c0.1,0.5,0.2,0.8,0.5,1c0.2,0.1,0.7,0.5,1.2,0.8c0.5,0.3,0.9,0.6,0.9,0.6s0.4,0.3,0.8,0.7     c0.2,0.2,0.3,0.3,0.3,0.4c0,0.2,0,0.3,0,0.4c0,0.3,0.2,0.5,0.4,0.9c0.5-0.2,0.7-0.4,0.7-0.9c0-0.1,0-0.4-0.1-0.7     c0-0.2-0.1-0.3-0.2-0.5c-0.1-0.2-0.2-0.3-0.4-0.4c-0.5-0.4-0.9-0.8-0.9-0.8s-0.4-0.3-0.9-0.7c-0.5-0.3-1-0.7-1.2-0.8     C149,97.9,148.7,98,148.2,98.1z"/>
		</g>
	</g>
</g>
<g>
	<g>
		<g>
			<path class="st0" d="M153.5,65.6c0.5-0.9,0.7-1.6,1-2.7c0-0.2,0.1-0.4,0.1-0.7c0.1-0.5,0.2-1.1,0.3-1.8c0.3-1.9,0.7-4.2,0.8-6.4     c0.1-1.1,0.1-2.2-0.1-3.2c-0.1-1-0.4-1.9-0.6-2.6c-0.5-1.5-1.1-2.4-1.1-2.4s-0.1-0.2-0.4-0.6c-0.3-0.4-0.7-0.9-1.2-1.4     c-0.6-0.6-1.3-1.1-2.2-1.7c-0.4-0.2-0.9-0.5-1.3-0.8c-0.4-0.3-0.9-0.6-1.3-0.9c-1.8-1.2-3.7-2.6-5.5-3.3     c-0.7-0.3-1.4-0.5-1.7-0.7c-1.2-0.4-1.9-0.4-2.9-0.2c1,0.4,1.6,0.6,2.7,1c0.3,0.1,0.9,0.3,1.6,0.6c1.7,0.8,3.6,2,5.3,3.3     c0.4,0.3,0.9,0.6,1.4,0.9c0.5,0.3,0.9,0.5,1.3,0.8c0.8,0.5,1.5,1,2,1.5c0.5,0.5,0.9,1,1.1,1.3c0.2,0.3,0.4,0.5,0.4,0.5     s0.5,0.8,1,2.2c0.2,0.7,0.4,1.6,0.6,2.5c0.1,0.9,0.1,2,0.1,3c-0.1,2.1-0.5,4.4-0.8,6.3c-0.2,1.1-0.4,2-0.5,2.5     C153.5,63.8,153.5,64.5,153.5,65.6z"/>
		</g>
	</g>
</g>
<g>
	<g>
		<g>
			<path class="st0" d="M153.2,65.6c0.5,0.2,0.8,0.5,1,0.8c0.3,0.3,0.5,0.6,0.8,1.1c0.1,0.2,0.2,0.4,0.4,1.1c0.2,0.7,0.2,1.9,0,2.9     c-0.2,1-0.4,1.8-0.4,1.8s-0.2,0.7-0.6,1.5c-0.4,0.8-1,1.8-1.5,2.4c-0.6,0.7-1,1-1.2,1.2c-0.9,0.7-1.4,1.1-2.4,1.4     c1,0.2,1.9,0,2.9-0.7c0.2-0.2,0.7-0.6,1.3-1.3c0.5-0.7,1.2-1.7,1.6-2.5c0.4-0.9,0.6-1.6,0.6-1.6s0.3-0.9,0.5-2     c0.2-1.1,0.2-2.4,0-3.2c-0.2-0.7-0.3-1-0.4-1.2C155.1,66,154.2,65.5,153.2,65.6z"/>
		</g>
	</g>
</g>
<path class="st1" d="M130,65.6c0,0,2-1.6,5.5,0"/>
<path class="st1" d="M117,67.1c0,0,1.9-3,5.7-1.1"/>
<g>
	<g>
		<g>
			<path class="st0" d="M134.8,153.9c0,0-0.1,0-0.1,0c-0.4-0.3-1-1,0-1.7c0,0,0.1-0.1,0.1-0.1l3.1,0.1c4.8,0.1,9.6,0.3,14.3,0.5     c2.4,0.1,4.8,0.3,7.2,0.4c1.2,0.1,2.4,0.2,3.6,0.3l1.9,0.2c0,0,2.8,0.5,4.8,1.1c3.3,1,1.8,1.1-0.2,1c0.1,0-1.1,0-2.4-0.1     c-1.3-0.1-2.6-0.1-2.6-0.1l-2.1-0.2c-1.2-0.1-2.3-0.2-3.5-0.3c-2.3-0.2-4.7-0.3-7-0.4c-4.7-0.2-9.4-0.4-14.1-0.5L134.8,153.9z"/>
		</g>
	</g>
</g>
<g>
	<path d="M163.5,132c0,0,1.5,17.5,2.5,22.2l-6.8-0.5C159.2,153.7,162.3,151.3,163.5,132z"/>
</g>
<g>
	<g>
		<g>
			<path class="st0" d="M139.2,153.5c0,0,0-0.1,0.1-0.1c0.4-0.4,1.2-0.7,1.7,0.4c0,0,0,0.1,0,0.2c-0.3,1-0.5,2-0.7,3     c-0.5,2.3-0.8,4.6-1,7c0,0.6-0.1,1.1-0.1,1.7c0,0-0.3,2.4-0.6,4.8c-0.3,3.4-0.7,2.1-1-0.1c0,0.1-0.1-1.2-0.2-2.5     c-0.1-1.3,0-2.6,0-2.6c0-0.5,0.1-1,0.1-1.5c0.2-2.4,0.6-4.8,1-7.2C138.7,155.5,138.9,154.5,139.2,153.5z"/>
		</g>
	</g>
</g>
<path d="M81.1,67.7c0,0,0.5-0.9-2.2-1.4c-2.7-0.5-4.2-5-5.2-7.3c-0.7-1.5-3.3-2.2-6.3-1.3c-2.7,0.8-7.9-2.3-9-4  c-1.1-1.7-5.3-0.6-5.7,3.2c-0.1,1.5,1.8,10.2-6.3,13c0,0-3.5-2.9-5.6,0.4c0,0-7.2-17.2,7-23.6c0,0,5.6-6.2,10.2-7.5  s11.9-2.1,18.1,5.7c0,0,5.8,4.7,7.5,9.4C85.5,59.7,85.7,64.1,81.1,67.7z"/>
<path d="M40,73.9c0,0-3.1,2.7-5,13.3c-0.8,4.4-9.3,5.7-12.4,13.4c-2.7,6.8,1.1,12.8,1.1,12.8s2.7-6.1,14.5-9.6  c1.5-0.4,3.8-1.3,5.2-2c3.1-1.6,5.1-1,6.1-6.7c1.1-6.6,0.3-7.7,0.3-7.7s-0.6-0.5-2.8-3.7c0,0-1.2,0.4-2.2-1  c-0.5-0.7-0.6-2.2-0.2-2.5l-1.2-0.9c-0.6-0.2-2.1-2-2.8-3.5L40,73.9z"/>
<g>
	<g>
		<g>
			<path class="st0" d="M80.3,67.4c-0.3,1-0.4,1.7-0.6,2.8c0,0.2,0,0.4-0.1,0.7c0,0.1,0,0.3-0.1,0.5c-0.1,0.4-0.1,1-0.2,1.6     c-0.4,2.3-1,4.9-2,7.3c-0.9,2.4-2.3,4.5-3.4,5.9c-0.3,0.3-0.6,0.6-0.8,0.9c-0.3,0.3-0.5,0.5-0.7,0.7c-0.4,0.4-0.6,0.5-0.6,0.5     s-0.2,0.2-0.6,0.5c-0.4,0.3-1,0.7-1.8,1.2c-1.5,0.9-3.9,1.8-6.4,1.9c-2.6,0.1-5.3-0.2-7.4-0.9c-0.7-0.2-1.3-0.5-1.6-0.6     c-1-0.5-1.6-0.8-2.5-1.4c0.5,0.9,1,1.5,2.1,2.1c0.3,0.1,0.9,0.4,1.7,0.7c2.2,0.7,5,1,7.7,0.9c2.7-0.1,5.1-1.1,6.8-2     c0.8-0.5,1.4-0.9,1.9-1.2c0.4-0.3,0.7-0.5,0.7-0.5s0.2-0.2,0.6-0.6c0.2-0.2,0.4-0.4,0.7-0.7c0.3-0.3,0.5-0.6,0.8-1     c1.2-1.4,2.6-3.6,3.5-6.1c1-2.4,1.7-5.1,2.1-7.4c0.1-0.6,0.2-1.2,0.2-1.6c0-0.2,0-0.3,0.1-0.5c0-0.3,0.1-0.5,0.1-0.7     C80.6,69.1,80.5,68.4,80.3,67.4z"/>
		</g>
	</g>
</g>
<ellipse transform="matrix(0.9963 -8.628324e-02 8.628324e-02 0.9963 -6.1837 6.4579)" class="st2" cx="71.6" cy="74.8" rx="1.2" ry="1.4"/>
<ellipse transform="matrix(0.9963 -8.628324e-02 8.628324e-02 0.9963 -6.1878 5.54)" class="st2" cx="61" cy="74.4" rx="1.2" ry="1.7"/>
<path class="st3" d="M76,69.4c0,0,0,0.7-0.9,0.5c-0.5-0.1-1.3-1-2.5-1c-1.4,0-2.2,0.3-2.7,0.3c-0.6,0-1.2-1.8,2.6-1.6  C75.3,67.7,76,69.4,76,69.4z"/>
<path class="st3" d="M57.3,69.2c0,0,0.1,0.7,0.9,0.4c0.5-0.2,1.2-1.1,2.3-1.2c1.4-0.2,2.2,0.1,2.7,0.1c0.6-0.1,1-1.9-2.7-1.4  C57.9,67.4,57.3,69.2,57.3,69.2z"/>
<g>
	<g>
		<g>
			<path class="st0" d="M78.1,78.1c0.5,0.1,0.8,0.3,1,0.7c0.3,0.3,0.5,0.7,0.6,1.2c0,0.2,0.1,0.5,0,1c0,0,0,0.1,0,0.1s0,0,0,0l0,0     c-0.2,0.7-0.6,1.1-0.8,1.3c-0.3,0.3-0.8,0.4-1.2,0.5c-0.4,0.1-0.8,0.1-1.3,0c0.4,0.3,0.8,0.5,1.3,0.6c0.5,0,1.1-0.1,1.6-0.5     c0.3-0.2,0.8-0.8,1.1-1.6c0,0,0,0,0-0.1c0,0,0-0.1,0-0.1s0-0.1,0-0.1c0.1-0.8,0-1.2-0.1-1.4c-0.2-0.7-0.6-1.1-1-1.4     C79.2,78.1,78.6,77.9,78.1,78.1z"/>
		</g>
	</g>
</g>
<g>
	<g>
		<g>
			<path class="st0" d="M80.5,76.9c-0.4-0.1-0.6-0.2-0.6-0.1c-0.1,0.1-0.4,0.6-0.4,0.6S79.1,77.9,79,78c-0.1,0.1,0.1,0.3,0.3,0.6     c0.3,0.2,0.5,0.2,0.6,0.1c0.1-0.1,0.4-0.6,0.4-0.6s0.4-0.5,0.4-0.6C80.9,77.3,80.7,77.1,80.5,76.9z"/>
		</g>
	</g>
</g>
<g>
	<g>
		<g>
			<path class="st0" d="M80.4,68.1c0.5,0.1,0.5,0.4,0.6,0.4c0.1,0,0.3,0.1,0.5,0.3c0.2,0.3,0.3,0.6,0.3,0.6s0.1,0.4,0.2,0.8     c0.1,0.4,0.1,0.9,0.1,1c0,0.3,0.2,0.4,0.5,0.7c0.4-0.2,0.6-0.4,0.6-0.7c0-0.2,0-0.7-0.1-1.2c-0.1-0.5-0.2-0.9-0.2-0.9     s-0.1-0.4-0.4-1c-0.2-0.3-0.4-0.5-0.7-0.7c-0.3-0.2-0.5-0.2-0.7-0.2C80.7,67.3,80.3,67.7,80.4,68.1z"/>
		</g>
	</g>
</g>
<g>
	<g>
		<g>
			<path class="st0" d="M42.6,73.6c0.4,0.1,0.6,0.2,0.9,0.2c0.2,0,0.7,0.1,1.1,0.3c0.4,0.3,0.8,0.6,0.8,0.6s0.3,0.3,0.7,0.8     c0.3,0.4,0.6,0.9,0.7,1.1c0.2,0.3,0.4,0.4,0.8,0.6c0.1-0.4,0.1-0.7-0.1-1c-0.1-0.2-0.4-0.7-0.8-1.2c-0.4-0.5-0.7-0.8-0.7-0.8     s-0.4-0.4-0.9-0.7c-0.5-0.3-1.3-0.5-1.5-0.5C43.1,73.1,42.8,73.3,42.6,73.6z"/>
		</g>
	</g>
</g>
<g>
	<g>
		<g>
			<path class="st0" d="M46.7,75.5c-0.1-0.3-0.1-0.5-0.4-0.5c-0.1,0-0.5-0.1-0.8-0.2c-0.3-0.1-0.7,0-0.7,0s-0.3,0-0.7,0.1     c-0.3,0.1-0.7,0.3-0.8,0.4c-0.2,0.1-0.2,0.3-0.2,0.6c0.3,0.1,0.4,0.1,0.6,0c0.1,0,0.4-0.2,0.6-0.3c0.3-0.1,0.5-0.1,0.5-0.1     s0.2,0,0.5,0c0.3,0,0.6,0.1,0.7,0.2C46.3,75.8,46.4,75.7,46.7,75.5z"/>
		</g>
	</g>
</g>
<g>
	<g>
		<g>
			<path class="st0" d="M45.9,78.5c0.5,0.1,0.7,0.2,1.1,0.3c0.1,0,0.3,0,0.6,0.1c0.3,0.1,0.6,0.3,0.8,0.4c0.1,0.1,0.2,0.2,0.3,0.3     c0.1,0.1,0.1,0.2,0.2,0.3c0.1,0.2,0.1,0.4,0.1,0.4s0,0.1,0.1,0.4c0.1,0.2,0.1,0.5,0,0.8c-0.1,0.6-0.5,1.1-0.7,1.3     c-0.3,0.3-0.4,0.5-0.7,0.9c0.5,0.1,0.8,0.1,1.2-0.3c0.2-0.2,0.8-0.9,0.9-1.7c0.1-0.4,0-0.8-0.1-1.1c-0.1-0.3-0.1-0.4-0.1-0.4     s0-0.2-0.1-0.4c0-0.1-0.1-0.3-0.2-0.5c-0.1-0.1-0.2-0.3-0.4-0.5c-0.3-0.3-0.7-0.5-1-0.6C47.5,78,47.2,78,47,78     C46.5,77.9,46.2,78.1,45.9,78.5z"/>
		</g>
	</g>
</g>
<g>
	<g>
		<g>
			<path class="st0" d="M67.1,84.6c-1,0-1.7-0.1-2.8-0.2c-0.2,0-0.5,0-1.2-0.2c-0.2,0-0.6-0.1-0.9-0.2c-0.2-0.1-0.3-0.1-0.5-0.2     c0,0-0.3-0.1-0.4-0.1c-0.2,0-0.3,0-0.5,0.1c-0.2,0.2-0.3,0.6-0.2,0.8c0,0.2,0.1,0.4,0.1,0.5c0.1,0.3,0.2,0.4,0.2,0.4     s0.3,0.5,0.9,1c0.3,0.2,0.6,0.4,0.9,0.6c0.3,0.1,0.7,0.3,1,0.4c1,0.2,1.7-0.1,2-0.2c0.6-0.3,1-0.7,1.3-1.1     c0.2-0.4,0.4-0.9,0.3-1.4c-0.2,0.5-0.5,0.8-0.8,1.1c-0.3,0.3-0.6,0.5-1.1,0.7c-0.2,0.1-0.7,0.3-1.5,0.1c-0.2-0.1-0.5-0.2-0.8-0.3     c-0.3-0.1-0.6-0.3-0.8-0.5c-0.5-0.3-0.7-0.7-0.7-0.7s-0.1-0.1-0.1-0.3c0-0.1-0.1-0.2-0.1-0.3c0,0,0,0,0,0l0,0c0,0,0,0,0.1,0     c0.2,0.1,0.4,0.1,0.6,0.2c0.4,0.1,0.7,0.2,1,0.2c0.7,0.1,1,0.1,1.3,0.2C65.5,85.3,66.2,85,67.1,84.6z"/>
		</g>
	</g>
</g>
<g>
	<g>
		<g>
			<path class="st0" d="M40,73.9c-0.3-1-0.5-1.6-1-2.7c-0.1-0.1-0.2-0.4-0.3-0.6c-0.1-0.1-0.1-0.3-0.2-0.4c-0.2-0.5-0.5-1.3-0.8-1.9     c-1-2.8-1.8-6.3-1.5-9.7c0.2-3.4,1.7-6.4,3.2-8.2c0.7-0.9,1.4-1.6,1.9-2.1c0.2-0.2,0.4-0.4,0.6-0.5c0.1-0.1,0.2-0.2,0.2-0.2     s0.3-0.2,0.8-0.7c0.3-0.2,0.6-0.4,1-0.7c0.4-0.3,0.8-0.6,1.4-0.9c0.3-0.1,0.5-0.3,0.8-0.5l0.2-0.1c0.1,0,0.2-0.1,0.2-0.1l0.1-0.2     c0.1-0.1,0.1-0.3,0.2-0.4c0.3-0.6,0.8-1.2,1.2-1.8c1-1.1,2.3-2.2,3.7-3c1.5-0.8,3.2-1.2,4.8-1.4c1.6-0.1,3.3-0.1,4.7,0.2     c0.8,0.1,1.4,0.3,1.7,0.3c1.1,0.3,1.8,0.4,2.9,0.4c-0.9-0.5-1.5-0.8-2.7-1.2c-0.3-0.1-1-0.2-1.8-0.3C60,37,58.3,36.9,56.5,37     c-1.7,0.2-3.5,0.7-5.1,1.5c-1.6,0.8-2.9,1.9-4,3.2c-0.5,0.6-1,1.2-1.3,1.9C46,43.7,46,43.8,45.9,44c0,0,0,0,0,0l-0.2,0.1     c-0.3,0.2-0.6,0.3-0.8,0.5c-0.5,0.3-1,0.6-1.4,0.9c-0.4,0.3-0.8,0.5-1,0.7c-0.6,0.4-0.9,0.7-0.9,0.7s-0.1,0.1-0.2,0.2     c-0.1,0.1-0.3,0.3-0.6,0.6c-0.5,0.5-1.2,1.2-2,2.2c-1.6,1.9-3.1,5.1-3.3,8.6c-0.3,3.5,0.5,7.2,1.6,10c0.3,0.7,0.6,1.5,0.8,2     c0.1,0.2,0.1,0.3,0.2,0.5c0.1,0.3,0.2,0.5,0.3,0.6C38.8,72.6,39.2,73.2,40,73.9z"/>
		</g>
	</g>
</g>
<g>
	<g>
		<g>
			<path class="st0" d="M68.7,72.7c-0.4,1-0.6,1.6-0.7,2.8c0,0.2,0,0.5-0.1,1.2c0,0.3,0,0.9,0,1.4C68,78.6,68,79,68,79     s0,0.3,0.2,0.8c0.1,0.2,0.1,0.4,0.2,0.6c0,0.2,0,0.4,0,0.5c-0.1,0.7-0.6,1-0.8,1.2c-0.9,0.6-1.5,0.8-2.5,1     c0.5,0.1,0.9,0.2,1.4,0.2c0.5,0,1-0.2,1.6-0.5c0.1-0.1,0.3-0.2,0.6-0.5c0.2-0.3,0.5-0.7,0.5-1.2c0-0.2,0-0.5-0.1-0.8     C69.1,80,69,79.8,69,79.6c-0.1-0.4-0.1-0.7-0.1-0.7s0-0.4-0.1-0.8c0-0.5,0-1,0-1.3c0-0.7,0-1,0.1-1.2     C68.9,74.4,68.8,73.7,68.7,72.7z"/>
		</g>
	</g>
</g>
<g>
	<g>
		<g>
			<path class="st0" d="M40.2,104.2c0.2,2.1,0.5,3.5,1.5,5.7c0.2,0.4,0.5,1,1.1,2.2c1.1,2.1,3.3,5.6,5.7,8.3     c1.2,1.3,2.3,2.4,3.2,3.2c0.9,0.7,1.5,1.2,1.5,1.2s0.5,0.4,1.3,0.9c0.9,0.5,2.1,1.2,3.6,1.8c0.4,0.1,0.8,0.3,1.2,0.4     c0.4,0.1,0.8,0.2,1.2,0.3l0.6,0.1l0.3,0.1c0.2,0,0.3,0,0.4,0c0.5,0,1-0.1,1.4-0.2c1.8-0.6,3.1-1.7,4-2.7c1.3-1.4,1.9-2.5,2.2-3     c1.3-2.1,1.6-3.5,1.9-5.6c-1.3,1.6-2,2.8-3.2,4.7c-0.3,0.5-0.9,1.4-2.1,2.7c-0.8,0.9-2,1.9-3.4,2.3c-0.3,0.1-0.7,0.2-1,0.2     c-0.1,0-0.1,0-0.2,0l-0.3-0.1l-0.6-0.1c-0.4-0.1-0.7-0.2-1.1-0.3c-0.4-0.1-0.7-0.2-1.1-0.4c-1.4-0.5-2.5-1.1-3.3-1.6     c-0.8-0.5-1.3-0.8-1.3-0.8s-0.6-0.4-1.4-1.1c-0.8-0.7-2-1.8-3.1-3c-2.3-2.5-4.4-5.9-5.5-8c-0.6-1.2-0.9-1.8-1.1-2.1     C42.1,107,41.3,105.9,40.2,104.2z"/>
		</g>
	</g>
</g>
<g>
	<g>
		<g>
			<path class="st0" d="M75.8,98.4c-0.5,0.7-0.8,1.2-0.9,2c0,0.5-0.1,1.8-0.3,3.1c-0.2,1.3-0.3,2.4-0.3,2.4s-0.2,1.1-0.5,2.4     c-0.3,1.2-0.7,2.5-0.8,3c-0.3,0.8-0.2,1.3-0.1,2.2c0.7-0.4,1.2-0.8,1.5-1.7c0.2-0.5,0.6-1.8,0.9-3.1c0.3-1.3,0.5-2.5,0.5-2.5     s0.2-1.2,0.4-2.5c0.2-1.3,0.3-2.7,0.3-3.2C76.5,99.6,76.2,99.1,75.8,98.4z"/>
		</g>
	</g>
</g>
<g>
	<g>
		<g>
			<path class="st0" d="M46.4,102.1c-0.1,0.9-0.2,1.5,0.3,2.4c0.2,0.5,0.9,1.8,1.7,3.1c0.7,1.2,1.5,2.3,1.5,2.3s0.7,1.1,1.6,2.2     c0.9,1.1,1.9,2.3,2.3,2.7c0.7,0.7,1.3,0.9,2.2,1.1c-0.2-0.9-0.4-1.4-1-2.1c-0.3-0.4-1.3-1.5-2.2-2.6c-0.8-1.1-1.5-2.1-1.5-2.1     s-0.7-1-1.4-2.2c-0.7-1.2-1.4-2.5-1.6-3C47.6,103,47.1,102.6,46.4,102.1z"/>
		</g>
	</g>
</g>
<g>
	<g>
		<g>
			<path class="st0" d="M57.2,117.1c0.6,0.9,1.1,1.6,1.8,2.2c0.4,0.3,0.8,0.6,1.4,0.8c0.1,0,0.2,0,0.3,0.1c0.1,0,0.2,0.1,0.4,0     c0.1,0,0.3,0,0.4-0.1c0.1,0,0.2-0.1,0.3-0.1c0.3-0.2,0.6-0.4,0.8-0.6c0.3-0.3,0.8-0.8,1.7-1.9c0.5-0.7,1.3-1.8,2-2.8     c0.7-1,1.2-1.8,1.2-1.8s1.8-2.8,2.5-4.6c0.7-1.8,0.9-2.9,1.1-3.5c0.5-2.4,0.5-3.8,0.2-5.9c-0.8,1.9-1.2,3.2-1.7,5.5     c-0.1,0.6-0.4,1.7-1,3.3c-0.3,0.8-0.9,1.9-1.4,2.8c-0.5,0.9-0.9,1.6-0.9,1.6s-0.5,0.8-1.2,1.8c-0.6,1-1.5,2.1-1.9,2.7     c-0.8,1.1-1.3,1.5-1.5,1.8c-0.2,0.2-0.4,0.4-0.5,0.4c-0.1,0,0,0,0,0c0,0,0,0,0,0c0,0-0.1,0-0.1,0c-0.3-0.1-0.7-0.2-1.1-0.4     C58.9,118,58.1,117.6,57.2,117.1z"/>
		</g>
	</g>
</g>
<g>
	<g>
		<g>
			<path class="st0" d="M66.7,92.3c-0.4,0.4-0.5,0.8-0.5,1.3c0,0.3,0.1,1.1,0.3,1.9c0.2,0.8,0.4,1.4,0.4,1.4s0.2,0.7,0.6,1.4     c0.3,0.7,0.9,1.4,1.1,1.7c0.4,0.4,0.8,0.5,1.3,0.5c-0.1-0.6-0.1-0.9-0.4-1.2c-0.2-0.2-0.6-0.8-0.9-1.4c-0.3-0.6-0.5-1.2-0.5-1.2     s-0.2-0.6-0.4-1.3c-0.2-0.7-0.3-1.5-0.3-1.7C67.3,92.9,67.1,92.7,66.7,92.3z"/>
		</g>
	</g>
</g>
<path class="st4" d="M69.1,98.4c0,0,6-0.5,10.3,0.5"/>
<g>
	<g>
		<g>
			<path class="st0" d="M81.5,121.2c0,1.5,0,2.6,0.4,4.3c0.1,0.3,0.2,0.8,0.4,1.8c0.1,0.5,0.3,1.8,0.3,1.8s0.2,1,0.3,1.6     c0.2,1.3,0.3,2.2,0.4,2.6c0.2,1.8,0.5,2.7,0.8,4.2c0.4-1.5,0.5-2.6,0.3-4.4c-0.1-0.4-0.2-1.3-0.4-2.7c-0.1-0.6-0.3-1.6-0.3-1.6     s-0.2-1.3-0.3-1.8c-0.2-1-0.3-1.5-0.4-1.8C82.6,123.5,82.2,122.6,81.5,121.2z"/>
		</g>
	</g>
</g>
<g>
	<g>
		<g>
			<path class="st0" d="M90.8,99.4c0.2,2.1,0.4,3.4,1.3,5.7c0.1,0.4,0.4,1,0.8,2.3c0.3,0.9,1.2,3.2,1.2,3.2s0.7,1.9,1.1,2.9     c0.6,1.7,1,2.8,1.2,3.3c0.8,2.2,1.6,3.4,2.7,5.1c-0.2-2.1-0.4-3.4-1.3-5.7c-0.2-0.6-0.6-1.6-1.2-3.3c-0.4-1-1.1-2.9-1.1-2.9     s-0.8-2.2-1.2-3.2c-0.5-1.3-0.7-1.9-0.8-2.3C92.7,102.3,91.9,101.1,90.8,99.4z"/>
		</g>
	</g>
</g>
<g>
	<g>
		<g>
			<path class="st0" d="M81.2,105.9c0,0,0-0.1,0-0.1c0.3-0.4,0.9-1,1.7-0.1c0,0,0.1,0.1,0.1,0.1l0.1,3.1c0.1,3.8,0.3,7.7,0.6,11.5     c0.1,1.9,0.3,3.8,0.5,5.7c0.1,1,0.2,1.9,0.3,2.8c0.1,0.7,0.2,1.2,0.3,1.8c0,0,0.2,2.8,0.5,4.7c0.3,1.6,0.5,2.1,0.3,2.1     c-0.2,0-0.9-0.8-1.3-1.8c0,0.1-0.5-1.1-0.8-2.4c-0.4-1.3-0.6-2.6-0.6-2.6l-0.3-2c-0.1-0.9-0.2-1.9-0.3-2.8     c-0.2-1.9-0.4-3.8-0.5-5.7c-0.3-3.8-0.5-7.6-0.6-11.4L81.2,105.9z"/>
		</g>
	</g>
</g>
<g>
	<g>
		<g>
			<path class="st0" d="M90.8,98c0.7-1.4,1.2-2.3,1.8-3.9c0.1-0.3,0.3-0.7,0.6-1.7c0.2-0.4,0.4-0.9,0.7-1.4c0.2-0.3,0.4-0.5,0.6-0.8     c0.2-0.3,0.4-0.7,0.5-1.1c0.2-0.8,0-1.8-0.5-2.5c-0.4-0.7-0.9-1.2-1.4-1.7c-1.8-2.2-3.2-3.9-3.3-4c0,0-0.4-0.5-1.4-0.8     c-1.1-0.3-2.4,0.3-3.3,1.2c-0.5,0.4-1,0.9-1.4,1.4c-0.4,0.5-0.8,1-1.3,1.5c-0.9,0.9-1.8,1.7-2.7,2.4c-0.6,0.4-1.1,0.9-1.3,1.4     c-0.2,0.5-0.3,0.8-0.4,1.1c-0.2,1-0.1,1.8,0.1,2.5c0.3,0.7,0.8,1.2,1.4,1.7c-0.8-1.4-0.7-2.3-0.4-3.9c0-0.2,0.1-0.5,0.3-0.8     c0.1-0.3,0.4-0.6,1-1c0.8-0.6,1.9-1.5,2.8-2.5c0.5-0.5,0.9-1,1.3-1.5c0.4-0.5,0.8-0.9,1.3-1.3c0.9-0.8,1.8-1.1,2.3-0.9     c0.3,0.1,0.5,0.2,0.6,0.3c0.1,0.1,0.2,0.2,0.2,0.2c-0.1-0.1,1.4,1.7,3.2,3.8c0.4,0.5,1,1.1,1.3,1.7c0.3,0.5,0.5,1.1,0.3,1.6     c-0.1,0.3-0.2,0.5-0.4,0.8c-0.2,0.3-0.4,0.5-0.6,0.8c-0.4,0.6-0.6,1.1-0.8,1.6c-0.4,1-0.6,1.5-0.7,1.7     C90.9,95.4,90.8,96.4,90.8,98z"/>
		</g>
	</g>
</g>
<g>
	<g>
		<g>
			<path class="st0" d="M87.6,84.5c-1.3,0.9-2.1,1.6-3.2,2.9c-0.2,0.2-0.5,0.6-1.2,1.4c-0.9,1.1-3.2,3.8-3.2,3.8S80,92.8,79.8,93     c-0.2,0.2-0.5,0.7-0.7,1.1c-0.4,1-0.5,2.2-0.4,3.1c0.1,1.5,0.4,2.3,0.5,2.8c0.3,0.9,0.7,1.6,1.2,2.1c0.5,0.5,1,0.9,1.7,1.3     c-0.4-0.7-0.7-1.2-1-1.8c-0.3-0.6-0.5-1.2-0.8-2c-0.1-0.4-0.4-1.2-0.5-2.5c-0.1-0.7,0-1.8,0.3-2.6c0.3-0.6,0.9-1.2,0.8-1.2     c0,0,2.2-2.7,3.2-3.8c0.7-0.8,1-1.2,1.2-1.4C86.5,86.8,87,85.9,87.6,84.5z"/>
		</g>
	</g>
</g>
<g>
	<g>
		<g>
			<path class="st0" d="M91.9,83.8c0-1-0.1-1.7-0.6-2.9c-0.1-0.2-0.2-0.5-0.6-1.1c-0.3-0.4-0.7-1.1-1.4-1.6     c-0.3-0.3-0.8-0.4-1.2-0.5c-0.2,0-0.5,0-0.7,0c-0.2,0-0.4,0.1-0.6,0.2c-0.7,0.3-1.3,0.7-1.7,1c-0.4,0.3-0.7,0.5-0.7,0.5     s-0.8,0.6-1.8,1.5c-1,0.9-2.1,2.1-2.8,2.9c-0.3,0.3-0.5,0.6-0.7,0.9c-0.2,0.2-0.3,0.5-0.4,0.6c-0.3,0.6-0.3,1.2-0.2,1.6     c0.1,0.5,0.2,0.9,0.5,1.3c0-0.5,0-0.9,0.1-1.3c0.1-0.4,0.1-0.8,0.3-1.3c0.1-0.1,0.1-0.3,0.3-0.5c0.2-0.2,0.4-0.5,0.7-0.8     c0.7-0.8,1.8-2,2.8-2.9c0.9-0.9,1.7-1.5,1.7-1.5s0.2-0.2,0.6-0.5c0.4-0.3,0.9-0.6,1.6-0.9c0.6-0.3,1.2-0.2,1.8,0.2     c0.5,0.4,0.9,0.9,1.2,1.3c0.3,0.6,0.5,0.9,0.6,1C91.1,82.3,91.4,82.9,91.9,83.8z"/>
		</g>
	</g>
</g>
<g>
	<g>
		<g>
			<path class="st0" d="M89.5,78.8c-0.4-1.5-0.7-2.5-1.5-4.1c-0.1-0.2-0.2-0.4-0.5-1.1l-0.1-0.1c0,0,0-0.1-0.1,0l0,0     c-0.1-0.1-0.1-0.1-0.2-0.2c-0.1,0-0.2-0.1-0.3-0.2c-0.1,0-0.1,0-0.2-0.1c-0.7-0.2-1.8-0.3-2.7-0.5c-0.9-0.1-1.6-0.3-1.6-0.3     s0,0-0.2,0c-0.1,0-0.2,0-0.3-0.1c-0.1,0-0.1,0-0.2-0.1c0,0,0,0-0.2-0.1c-0.1,0-0.2-0.1-0.3-0.1c-0.1,0-0.2,0-0.4,0     c-0.1,0-0.3,0.1-0.4,0.2c-0.3,0.2-0.5,0.4-0.7,0.8c-0.4,0.7-0.2,1.6,0.1,2.1c0.5,0.8,1,1.1,1.5,1.3c0.4,0.2,0.7,0.4,1,0.4     c0.3,0.1,0.6,0.2,0.9,0.3l0.2,0c0.1,0,0.2,0,0.1,0c0,0,0,0,0.1,0c0,0,0,0,0,0c0,0,0,0.2,0.1,0.3c0.1,0.2,0.1,0.4,0.2,0.7     c0.2,0.4,0.4,0.9,0.8,1.2c-0.2-0.4-0.2-0.9-0.2-1.3c0-0.2,0-0.4,0-0.6c0-0.4,0-0.7,0-1c-0.4-0.1-0.7-0.2-1.1-0.4     c-0.3-0.1-0.5-0.2-0.8-0.3c-0.2-0.1-0.5-0.2-0.8-0.4c-0.3-0.2-0.8-0.5-1-0.9c-0.2-0.3-0.2-0.7-0.1-1c0.1-0.2,0.2-0.3,0.3-0.3     c0.1-0.1,0.1-0.1,0.1,0l0,0c-0.1,0,0,0,0.1,0c0.1,0.1,0.2,0.1,0.3,0.1c0.2,0.1,0.3,0.1,0.4,0.1c0.2,0,0.2,0.1,0.2,0.1     s0.8,0.2,1.7,0.3c0.9,0.1,2,0.3,2.5,0.4c0.1,0,0.1,0,0.1,0c0,0,0,0,0,0l0,0c0.3,0.6,0.5,0.9,0.5,1.1     C87.8,76.9,88.5,77.7,89.5,78.8z"/>
		</g>
	</g>
</g>
<path d="M72.8,88.3c0,0,5.3,3.6,5.8,10.3c0,0-9.1-0.7-10.2,0c0,0-2.4-5.2-1.8-6.7C67,91.1,70.5,90.6,72.8,88.3z"/>
<g>
	<g>
		<g>
			<path class="st0" d="M21.4,114.9c0,0,0-0.1,0.1-0.1c0.5-0.3,1.3-0.4,1.5,0.9c0,0,0,0.1,0,0.2c-0.5,0.9-1,1.8-1.4,2.7     c-1.9,3.8-3.5,7.8-4.8,11.8c-1.3,4-2.4,8.2-3.3,12.3c-0.8,4.2-1.5,8.4-1.9,12.6l-0.3,3.2l-0.1,3.2l-0.1,2c0,0-0.1,0.7-0.2,1.7     c-0.1,1-0.2,2.2-0.3,3.1c-0.4,3.4-0.8,2.1-1-0.1c0,0.1-0.1-1.1-0.2-2.4c0-0.6-0.1-1.3-0.1-1.8c0-0.5,0-0.8,0-0.8l0.1-2.6     c0.1-2.1,0.3-4.2,0.5-6.4c0.2-2.1,0.5-4.2,0.8-6.3c0.3-2.1,0.7-4.2,1.1-6.3c0.9-4.2,2-8.3,3.4-12.3c1.4-4,2.9-8,4.9-11.8     C20.4,116.7,20.9,115.8,21.4,114.9z"/>
		</g>
	</g>
</g>
<g>
	<g>
		<g>
			<path class="st0" d="M31,127.2c0,0,0-0.1,0.1-0.1c0.4-0.4,1.2-0.7,1.7,0.4c0,0,0,0.1,0,0.2c-0.2,1-0.5,2-0.7,3     c-0.6,3-1.1,6-1.4,9c-0.3,3-0.2,6,0.3,9c0.1,0.6,0.2,1.1,0.3,1.7c0,0,0.1,0.7,0.2,1.6c0.1,0.9,0.3,2,0.4,3.1     c0.3,1.7,0.3,2.2,0,2.1c-0.2-0.1-0.7-0.9-1-1.9c0,0.1-0.4-1.1-0.8-2.3c-0.4-1.2-0.7-2.5-0.7-2.5l-0.1-0.9c0-0.3-0.1-0.5-0.2-1     c-0.1-0.9-0.2-1.7-0.3-2.6c-0.1-1.7-0.1-3.5,0-5.3c0.2-3.5,0.8-6.9,1.5-10.3C30.5,129.2,30.7,128.2,31,127.2z"/>
		</g>
	</g>
</g>
<g>
	<g>
		<g>
			<path class="st0" d="M95.1,135.1c-0.6,0.2-0.9,0.4-1.1,0.8c-0.1,0.5-0.8,2.8-0.8,2.8s-0.7,2.3-0.8,2.8c-0.1,0.4,0.1,0.8,0.4,1.3     c0.6-0.2,0.9-0.4,1.1-0.8c0.1-0.5,0.8-2.8,0.8-2.8s0.7-2.3,0.8-2.8C95.7,136,95.5,135.6,95.1,135.1z"/>
		</g>
	</g>
</g>
<g>
	<g>
		<g>
			<path class="st0" d="M31.9,163.1C31.9,163.1,31.9,163.1,31.9,163.1c0.3-0.2,0.9-0.5,1.8-0.4c0,0,0.1,0,0.1,0c0,0.1,1,5.4,1,5.4     s0,0.9-0.2,1.6c-0.2,1.1-0.7,0.8-1,0.2c0,0.1-0.6-1.5-0.6-1.5S31.9,163.2,31.9,163.1z"/>
		</g>
	</g>
</g>
<path class="st5" d="M68.6,141.5l3.9,31.2c0.2,1.5,1.4,2.7,2.9,2.8l39.3,3.4c2.1,0.2,3.8-1.7,3.4-3.8l-6.1-31.6  c-0.3-1.4-1.5-2.5-2.9-2.6l-37.1-2.9C70.1,137.7,68.4,139.5,68.6,141.5z"/>
<ellipse class="st6" cx="91.9" cy="156.3" rx="3.2" ry="3.8"/>
<path class="st7" d="M115,158.3l2.7,14.1c0,0-6.7-0.1-7.7-0.9s-3.4-1.7-1.9-3.5c0,0-3.1-0.8-2.8-2c0.3-1.2,0.5-1.2,0.3-1.7  c-0.2-0.5,0.1-2.2,1.4-2.2c1.4,0-1.8-1.5-1.8-2.5c0-0.9,0.4-2,1-2s1.5,0,2.8,0.7s3.3,0.9,3.3,0.9L115,158.3z"/>
<g>
	<g>
		<g>
			<path class="st0" d="M47.9,80.6c-0.3,0.3-0.4,0.3-0.6,0.5c-0.1,0.1-0.4,0.3-0.7,0.1c-0.3-0.2-0.3-0.5-0.3-0.5c0,0,0-0.3,0.3-0.5     c0.3-0.2,0.7,0,0.7,0.1C47.4,80.3,47.6,80.3,47.9,80.6c0.2-0.3,0.3-0.7-0.1-1c-0.1-0.1-0.3-0.3-0.6-0.3c-0.3-0.1-0.7,0-1,0.2     c-0.3,0.2-0.5,0.5-0.6,0.8c-0.1,0.2-0.1,0.4-0.1,0.4s0,0.2,0.1,0.4c0.1,0.2,0.3,0.6,0.6,0.8c0.3,0.2,0.7,0.3,1,0.2     c0.3-0.1,0.5-0.2,0.6-0.3C48.2,81.3,48.1,80.9,47.9,80.6z"/>
		</g>
	</g>
</g>
<g>
	<g>
		<g>
			<path class="st0" d="M126.6,156.7c-1.3-0.9-2-1.5-3.4-2.5c-0.1-0.1-0.3-0.2-0.5-0.4c-0.2-0.2-0.6-0.5-1.1-0.7     c-0.1-0.1-0.4-0.2-0.4-0.2s-0.1,0-0.2-0.1c-0.1,0-0.1,0-0.2-0.1c-1.2-0.4-2.1-0.6-2.6-0.7c-0.4-0.1-0.8-0.2-1.1-0.3     c-0.3-0.1-0.6-0.2-0.9-0.3c-0.6-0.2-1.2-0.4-1.9-0.7c0.5,0.6,1,1.1,1.5,1.5c0.3,0.2,0.6,0.4,1,0.6c0.4,0.2,0.8,0.3,1.2,0.4     c0.5,0.1,1.4,0.3,2.5,0.7c0,0,0.1,0,0.2,0.1c0.1,0,0.2,0.1,0.2,0.1s0.2,0.1,0.3,0.2c0.4,0.2,0.7,0.4,0.9,0.6     c0.2,0.2,0.4,0.3,0.5,0.4C124,156.1,125.1,156.5,126.6,156.7z"/>
		</g>
	</g>
</g>
<g>
	<g>
		<g>
			<path class="st0" d="M126.8,169.4c-0.4-0.4-0.7-0.5-1.2-0.5c-0.3,0-1.1,0.1-1.8,0.3c-0.7,0.1-1.4,0.3-1.4,0.3s-0.7,0.1-1.4,0.4     c-0.7,0.2-1.5,0.5-1.7,0.6c-0.5,0.2-0.6,0.5-0.8,1c0.5,0.2,0.8,0.2,1.3,0c0.2-0.1,0.9-0.4,1.6-0.6c0.7-0.2,1.3-0.4,1.3-0.4     s0.6-0.1,1.3-0.3c0.7-0.1,1.5-0.2,1.7-0.2C126.1,170,126.4,169.8,126.8,169.4z"/>
		</g>
	</g>
</g>
<g>
	<g>
		<g>
			<path class="st0" d="M116.4,172.1c-0.5-0.4-0.9-0.6-1.5-0.6c-0.3,0-1.3,0-2.2-0.1c-0.4,0-0.9-0.1-1.1-0.2     c-0.2-0.1-0.4-0.1-0.4-0.1s-0.8-0.3-1.5-0.7c-0.4-0.2-0.7-0.5-1-0.7c-0.2-0.2-0.4-0.4-0.4-0.5c-0.1-0.2-0.1-0.2-0.2-0.4     c0-0.2,0-0.4,0-0.7c-0.3,0.1-0.6,0.2-0.8,0.4c-0.1,0.1-0.2,0.3-0.2,0.5c0,0.2,0,0.4,0.1,0.6c0.1,0.3,0.3,0.6,0.7,1     c0.3,0.3,0.8,0.6,1.2,0.9c0.9,0.5,1.7,0.8,1.7,0.8s0.2,0.1,0.6,0.2c0.4,0.1,0.8,0.2,1.3,0.2c1,0.1,2,0.1,2.3,0.1     C115.5,172.7,115.9,172.5,116.4,172.1z"/>
		</g>
	</g>
</g>
<g>
	<g>
		<g>
			<path class="st0" d="M116,169.1c-0.8-0.1-1.4-0.2-2.1-0.3c-0.3,0-0.7,0-1.1,0c-0.2,0-0.4,0-0.6,0c-0.1,0,0,0-0.1,0l-0.3-0.1     c-0.3-0.1-0.8-0.2-1.7-0.5c0,0-0.1,0-0.1,0s0,0-0.1,0c0,0-0.1,0-0.1,0c-1.1-0.4-2-0.7-2.4-0.9c-0.8-0.3-1.4-0.7-1.6-0.9     c-0.1-0.3-0.2-0.5-0.2-0.8c0-0.3,0.1-0.6,0.5-0.8c-0.4,0-0.8,0.3-1,0.7c-0.2,0.4-0.2,0.8-0.1,1.2c0.1,0.5,0.5,0.8,0.8,1.1     c0.3,0.3,0.7,0.5,1.1,0.7c0.5,0.2,1.4,0.6,2.5,1c0,0,0.1,0,0.1,0c0,0,0.1,0,0.1,0s0.1,0,0.1,0c1,0.3,1.5,0.4,1.8,0.5l0.3,0.1     l0.2,0.1c0.1,0,0.2,0,0.3,0c0.2,0,0.4,0,0.6-0.1c0.4-0.1,0.7-0.1,1-0.2C114.6,169.5,115.3,169.4,116,169.1z"/>
		</g>
	</g>
</g>
<g>
	<g>
		<g>
			<path class="st0" d="M115.3,166.3c-0.8-0.1-1.4-0.1-2.1-0.1c-0.3,0-0.7,0-1.1,0.1c-0.1,0-0.6-0.1-1-0.2c-0.3-0.1-0.8-0.2-1.7-0.5     c-0.6-0.2-1.5-0.5-2.3-0.9c-0.8-0.4-1.2-0.8-1.1-0.8c0,0-0.3-0.3-0.1-0.7c0-0.1,0.2-0.2,0.5-0.2c0.3,0,0.7,0,1,0.1     c1.3,0.4,2.1,0.6,2.5,0.7c0.5,0.2,1,0.3,1.4,0.4c0.2,0,0.4,0.1,0.6,0.1c0.2,0,0.3,0,0.7,0.1c0.1,0,0.2-0.1,0.3-0.1l0.2-0.1     c0.1-0.1,0.2-0.1,0.3-0.2c0.2-0.1,0.5-0.3,0.7-0.5c-0.3,0-0.6,0.1-0.9,0.1c-0.1,0-0.3,0-0.4,0.1c-0.1,0-0.1,0-0.2,0     c0,0-0.1,0-0.1,0c0,0-0.3-0.1-0.4-0.2c-0.2-0.1-0.4-0.2-0.6-0.2c-0.4-0.2-0.9-0.3-1.4-0.5c-0.4-0.1-1.3-0.4-2.6-0.8     c-0.4-0.1-0.8-0.2-1.3-0.1c-0.3,0-0.5,0.1-0.8,0.2c-0.3,0.2-0.6,0.4-0.7,0.7c-0.2,0.6-0.1,1,0,1.4c0.2,0.3,0.3,0.5,0.3,0.5     c0,0,0.6,0.7,1.5,1.1c0.8,0.4,1.9,0.8,2.5,0.9c1,0.3,1.5,0.4,1.8,0.5c0.2,0,0.4,0.1,0.6,0.1l0.3,0.1c0.1,0,0.2,0,0.3,0l0.2,0     c0.4-0.1,0.7-0.2,1-0.3C114,166.8,114.6,166.6,115.3,166.3z"/>
		</g>
	</g>
</g>
<g>
	<g>
		<g>
			<path class="st0" d="M106.7,157.6c-0.3-0.2-0.6-0.2-0.9-0.2c-0.3,0-0.7,0.1-1,0.6c-0.2,0.2-0.4,0.9-0.1,1.5c0.2,0.6,0.6,1,1,1.4     c0.8,0.7,1.6,1.2,1.6,1.2s0.2,0.1,0.5,0.3c0.2,0.1,0.3,0.2,0.6,0.3c0.1,0.1,0.2,0.1,0.3,0.2l0.2,0.1c0.1,0,0.2,0.1,0.3,0.1     c1,0.2,2.1,0.3,2.5,0.4c0.7,0.1,1.1,0,1.7-0.3c-0.5-0.5-0.9-0.7-1.5-0.8c-0.4-0.1-1.4-0.2-2.4-0.4c-0.2-0.1-0.3-0.2-0.5-0.3     c-0.2-0.1-0.4-0.2-0.5-0.3c-0.3-0.2-0.5-0.3-0.5-0.3s-0.8-0.5-1.4-1.1c-0.3-0.3-0.6-0.7-0.7-1c-0.1-0.3,0-0.4,0-0.4     C105.9,158.4,106.2,158,106.7,157.6z"/>
		</g>
	</g>
</g>
<g>
	<g>
		<g>
			<path class="st0" d="M107.6,157.7c0.6,0.4,1.2,0.8,1.8,1.1c0.3,0.2,0.6,0.3,1,0.5c0.2,0.1,0.4,0.2,0.5,0.2c0.1,0,0.2,0.1,0.3,0.1     c0.1,0,0.2,0.1,0.3,0l0.2,0c0.3,0,0.8-0.1,1.9-0.3c0.2,0,0.5-0.1,0.5-0.1s0.3-0.1,0.5-0.1c1.4-0.4,2.2-0.9,2.6-1.2     c0.3-0.2,0.6-0.5,0.8-0.7c0.2-0.2,0.5-0.5,0.7-0.8l0.1-0.1c0,0-0.1,0-0.1,0c-0.1,0-0.2,0-0.3-0.1c-0.2,0-0.4-0.1-0.6-0.1     c-0.3-0.1-0.7-0.2-0.9-0.2c-0.6-0.2-1.3-0.2-1.9-0.7c0.3,0.7,1,1.1,1.6,1.5c0.2,0.2,0,0.1-0.1,0.2c-0.3,0.2-1,0.7-2.2,1     c-0.1,0.1-0.4,0.1-0.4,0.1s-0.3,0.1-0.5,0.1c-1,0.2-1.4,0.2-1.7,0.3l-0.1,0c0,0,0,0,0,0c-0.1,0-0.2-0.1-0.3-0.1     c-0.2-0.1-0.3-0.1-0.5-0.2c-0.4-0.1-0.7-0.2-1-0.2C109,157.9,108.4,157.8,107.6,157.7z"/>
		</g>
	</g>
</g>
<g>
	<g>
		<g>
			<path class="st0" d="M13.2,45.7c0-2.1,0-3.4-0.6-5.8c-0.2-1-0.7-2.9-1.2-5.2c-0.5-2.1-1-4.4-1.6-6.7c-0.3-1.2-0.6-2.4-0.8-3.5     l-0.4-1.8l-0.2-0.9c-0.1-0.3-0.1-0.4,0-0.6c0.1-0.4,0.3-0.7,0.6-0.9C9.1,20.1,9.2,20,9.4,20c0.3,0,0.6-0.1,0.9-0.1     c1.2-0.2,2.3-0.3,3.4-0.5c2.2-0.3,4.1-0.6,5.8-0.8c3.4-0.5,5.5-0.8,5.5-0.8s2.2-0.3,5.5-0.8c1.7-0.2,3.7-0.5,5.8-0.8     c0.5-0.1,1.1-0.2,1.7-0.2c0.1,0,0.3,0,0.4-0.1c0.1,0,0.2,0,0.3,0c0.2,0,0.4,0.1,0.5,0.2c0.3,0.2,0.6,0.5,0.7,0.9     c0.1,0.6,0.3,1.2,0.4,1.8c1.6,7,3.4,14.6,4,17.2c0.6,2.3,1.1,3.6,2.1,5.4c0-2.1,0-3.4-0.6-5.8c-0.6-2.5-2.4-10.2-4-17.2     c-0.1-0.6-0.3-1.2-0.4-1.8c-0.2-0.8-0.7-1.5-1.4-1.9c-0.3-0.2-0.7-0.3-1.1-0.4c-0.2,0-0.4,0-0.6,0c-0.2,0-0.3,0-0.5,0.1     c-0.6,0.1-1.1,0.2-1.7,0.2c-2.2,0.3-4.1,0.6-5.8,0.8c-3.4,0.5-5.5,0.8-5.5,0.8s-2.2,0.3-5.5,0.8c-1.7,0.2-3.7,0.5-5.8,0.8     c-1.1,0.2-2.2,0.3-3.4,0.5c-0.3,0-0.6,0.1-0.9,0.1c-0.4,0.1-0.8,0.2-1.1,0.4c-0.7,0.4-1.2,1.2-1.3,2c-0.1,0.4,0,0.9,0.1,1.2L7,23     l0.4,1.8C7.7,26,8,27.1,8.3,28.3c0.5,2.3,1.1,4.6,1.6,6.7c0.6,2.4,1,4.3,1.2,5.2C11.7,42.6,12.2,43.8,13.2,45.7z"/>
		</g>
	</g>
</g>
<g>
	<g>
		<g>
			<path class="st0" d="M34.2,57.9c-2.1,0-3.4,0-5.8,0.6c-0.4,0.1-1,0.2-2.4,0.6c-0.2,0.1-0.7,0.2-0.7,0.2s-0.4,0.1-0.6,0.1     c-1.8,0.4-2.9,0.7-3.5,0.8c-0.6,0.1-1.1,0.3-1.6,0.4c-0.2,0.1-0.4,0.1-0.7,0.2c-0.2,0.1-0.3,0.1-0.5,0.1c-0.6,0.1-1.5-0.1-2-1.1     c0,1,0.8,2,1.9,2.2c0.3,0.1,0.6,0,0.9,0c0.3,0,0.5-0.1,0.7-0.1c0.5-0.1,1-0.2,1.6-0.3c0.6-0.1,1.7-0.4,3.5-0.8     c0.2-0.1,0.6-0.2,0.6-0.2s0.5-0.1,0.7-0.2c1.3-0.3,2-0.5,2.4-0.6C31.1,59.4,32.4,58.8,34.2,57.9z"/>
		</g>
	</g>
</g>
<g>
	<g>
		<g>
			<path class="st0" d="M22.5,58.5c-2.1,0-3.4,0-5.8,0.6c-0.4,0.1-1,0.2-2.4,0.6c-0.5,0.1-1.4,0.4-1.6,0.3c-0.2,0-0.4-0.2-0.5-0.3     c-0.1-0.1-0.1-0.2-0.2-0.3l0-0.1l0-0.2l-0.1-0.3c-0.4-1.6-0.8-3.4-1.2-5c-0.2-0.8-0.4-1.6-0.5-2.3c-0.1-0.4-0.2-0.7-0.2-1     l-0.1-0.2c0,0,0-0.1,0-0.1c0-0.1,0-0.2,0-0.2c0.1-0.6,0.6-0.7,0.6-0.7c0,0,0,0,0.3-0.1c0.3,0,0.6-0.1,1.1-0.2     c0.9-0.2,2.2-0.4,3.7-0.6c1.4-0.2,3-0.5,4.6-0.8c0.4-0.1,0.8,0.2,1,0.6c0.2,0.7,0.3,1.4,0.5,2c0.4,1.8,0.7,2.9,0.8,3.5     c0.3,1.2,0.6,2.1,0.9,2.9c0.1,0.3,0.2,0.6,0.1,1C23.2,57.9,22.9,58.2,22.5,58.5c0.5,0,1-0.2,1.4-0.7c0.3-0.4,0.5-1,0.4-1.6     c-0.1-0.9-0.2-1.8-0.5-3c-0.1-0.6-0.4-1.7-0.8-3.5c-0.1-0.3-0.1-0.6-0.2-1c0-0.2-0.1-0.3-0.1-0.5L22.5,48l0-0.1l-0.1-0.2     c-0.3-1-1.4-1.8-2.6-1.7c-1.6,0.3-3.2,0.5-4.7,0.8c-1.4,0.2-2.7,0.5-3.7,0.6c-0.5,0.1-0.8,0.1-1.1,0.2c-0.3,0-0.5,0.1-0.5,0.1     c0,0-0.2,0.1-0.6,0.3c-0.4,0.3-0.8,0.8-1,1.6c0,0.2,0,0.4,0,0.6c0,0.1,0,0.2,0.1,0.3l0.1,0.2c0.1,0.3,0.2,0.6,0.2,1     c0.2,0.7,0.3,1.5,0.5,2.3c0.4,1.6,0.8,3.4,1.2,5l0.1,0.3l0,0.2l0.1,0.2c0.1,0.3,0.2,0.6,0.4,0.8c0.4,0.5,0.9,0.8,1.4,0.9     c0.5,0.1,1.1,0,1.4-0.1c0.3-0.1,0.6-0.1,0.9-0.2c1.3-0.3,2-0.5,2.4-0.6C19.4,60,20.6,59.4,22.5,58.5z"/>
		</g>
	</g>
</g>
<g>
	<g>
		<g>
			<path class="st0" d="M14.8,26.3C14.7,26.3,14.7,26.3,14.8,26.3c-0.4-0.1-0.8-0.5-0.3-1.2c0,0,0.1-0.1,0.1-0.1l2-0.3l14.9-2.5     c0,0,1.9-0.2,3.2-0.2c2.3-0.1,1.4,0.3,0.1,0.7c0.1,0-3.3,0.8-3.3,0.8L16.8,26L14.8,26.3z"/>
		</g>
	</g>
</g>
<g>
	<g>
		<g>
			<path class="st0" d="M18.2,30.2C18.2,30.2,18.2,30.2,18.2,30.2c-0.4-0.1-0.9-0.5-0.3-1.2C18,29,18,29,18,29l2-0.3l11.5-2l1.1-0.2     c0,0,1.9-0.2,3.2-0.2c2.3-0.1,1.4,0.3,0.1,0.7c0.1,0-3.3,0.8-3.3,0.8l-1,0.2l-11.5,2L18.2,30.2z"/>
		</g>
	</g>
</g>
<g>
	<g>
		<g>
			<path class="st0" d="M25.7,33.8C25.7,33.8,25.7,33.8,25.7,33.8c-0.4-0.1-0.9-0.5-0.3-1.2c0,0,0.1-0.1,0.1-0.1l2-0.3l4.7-0.8     l1.1-0.2c0,0,1.9-0.2,3.2-0.2c2.3-0.1,1.4,0.3,0.1,0.7c0.1,0-3.3,0.8-3.3,0.8l-1,0.2l-4.7,0.8L25.7,33.8z"/>
		</g>
	</g>
</g>
<g>
	<g>
		<g>
			<path class="st0" d="M18.2,41.4C18.2,41.4,18.2,41.4,18.2,41.4c-0.4-0.1-0.9-0.5-0.3-1.2c0,0,0.1-0.1,0.1-0.1l2-0.4l16.3-3     c0,0,1.9-0.2,3.2-0.3c2.3-0.1,1.4,0.3,0.1,0.7c0.1,0-3.2,0.8-3.2,0.8l-16.2,3L18.2,41.4z"/>
		</g>
	</g>
</g>
<g>
	<g>
		<g>
			<path class="st0" d="M28.9,44.7C28.9,44.7,28.9,44.7,28.9,44.7c-0.4-0.1-0.9-0.5-0.3-1.2c0,0,0.1-0.1,0.1-0.1l2-0.4l6.1-1.1     l1.1-0.2c0,0,1.9-0.2,3.2-0.2c2.3-0.1,1.4,0.3,0.1,0.7c0.1,0-3.2,0.8-3.2,0.8l-1,0.2L31,44.3L28.9,44.7z"/>
		</g>
	</g>
</g>
<g>
	<g>
		<g>
			<path class="st0" d="M39,46.2C39,46.2,39.1,46.2,39,46.2c0.4,0.1,0.9,0.5,0.3,1.2c0,0-0.1,0.1-0.1,0.1l-2,0.4L31.9,49l-1.3,0.3     l-0.5,0.1l0,0l0.3,1.8l0,0l1.1-0.2c0,0,1.9-0.2,3.2-0.2c2.3-0.1,1.4,0.3,0.1,0.7c0.1,0-3.3,0.7-3.3,0.7l-1,0.2     c-0.4,0-0.8,0.2-1.1,0.1l-0.7-3.6l-0.1-0.3c0-0.1,0-0.1,0-0.2l0.2,0l0.7-0.1l0.8-0.2l1.3-0.3l5.3-1.1L39,46.2z"/>
		</g>
	</g>
</g>
<g>
	<g>
		<g>
			<path class="st0" d="M13,53.3c-0.1,0.4-0.1,0.7,0.1,0.9c0.2,0.2,1.5,1.3,1.5,1.3s1.2,1.1,1.5,1.3c0.2,0.2,0.5,0.2,0.9,0.1     c0.1-0.4,0.1-0.7-0.1-0.9c-0.2-0.2-1.5-1.3-1.5-1.3s-1.2-1.1-1.5-1.3C13.7,53.2,13.4,53.2,13,53.3z"/>
		</g>
	</g>
</g>
<g>
	<g>
		<g>
			<path class="st0" d="M14.2,50.9c0,0.5,0,0.8,0.3,1.1c0.3,0.3,1.9,1.8,1.9,1.8s1.6,1.5,1.9,1.8c0.3,0.3,0.6,0.3,1.1,0.2     c0-0.5,0-0.8-0.3-1.1c-0.3-0.3-1.9-1.8-1.9-1.8s-1.6-1.5-1.9-1.8C15,50.9,14.7,50.9,14.2,50.9z"/>
		</g>
	</g>
</g>
<g>
	<g>
		<g>
			<path class="st0" d="M17.7,50.5c-0.2,0.4-0.2,0.6-0.2,0.7c0.1,0.1,0.7,0.6,0.7,0.6s0.5,0.5,0.7,0.6c0.1,0.1,0.3,0,0.6-0.2     c0.2-0.4,0.2-0.6,0.2-0.7c-0.1-0.1-0.7-0.6-0.7-0.6s-0.5-0.5-0.7-0.6C18.2,50.2,18,50.3,17.7,50.5z"/>
		</g>
	</g>
</g>
<g>
	<g>
		<g>
			<path class="st0" d="M184.9,68.6c0.6-2,1-3.3,1.1-5.7c0-0.4,0.1-1.1,0.1-2.4c0.2-3.3,0.5-8.9,0.7-13.7c0-0.6,0.1-1.2,0.1-1.7     c0-0.3,0-0.6,0-0.8c0-0.3,0-0.7-0.1-1.1c-0.4-1.4-1.8-2.1-2.9-2.1c-1.6,0.1-2.6,0.1-2.6,0.1s-13.2,0.4-20.5,0.7     c-1.8,0.1-3,0.1-3.6,0.1c-0.6,0-1.1,0.1-1.6,0.1c-0.5,0.1-0.9,0.1-1.5,0.3c-1.1,0.4-1.7,1.5-1.5,2.5c0.3-1,1.1-1.4,1.8-1.4     c0.3,0,0.8,0.1,1.3,0.1c0.5,0,1,0,1.6,0c0.6,0,1.7-0.1,3.6-0.1c7.3-0.2,20.5-0.7,20.5-0.7s1,0,2.6-0.1c0.5,0,1.1,0.3,1.3,1     c0,0.2,0.1,0.3,0.1,0.5c0,0.3,0,0.5,0,0.8c0,0.6-0.1,1.1-0.1,1.7c-0.3,4.8-0.6,10.3-0.7,13.7c-0.1,1.4-0.1,2-0.1,2.4     C184.3,65.2,184.5,66.6,184.9,68.6z"/>
		</g>
	</g>
</g>
<g>
	<g>
		<g>
			<path class="st0" d="M150.5,83.1c2,0.6,3.3,1,5.7,1.1c0.4,0,1.1,0.1,2.4,0.2c2.7,0.2,9,0.6,9,0.6s5.3,0.3,8.2,0.5     c1.8,0.1,3,0.2,3.6,0.2c0.6,0,1.1,0.1,1.6,0c0.2,0,0.5,0,0.7,0c0.3,0,0.6,0,0.8-0.1c1.1-0.4,1.7-1.5,1.5-2.5     c-0.3,1-1.1,1.4-1.8,1.4c-0.2,0-0.3,0-0.5-0.1c-0.2,0-0.5-0.1-0.7-0.1c-0.5-0.1-1-0.1-1.6-0.2c-0.6,0-1.7-0.1-3.6-0.2     c-2.9-0.2-8.2-0.5-8.2-0.5s-6.3-0.4-9-0.6c-1.4-0.1-2-0.1-2.4-0.2C153.9,82.6,152.6,82.7,150.5,83.1z"/>
		</g>
	</g>
</g>
<g>
	<g>
		<g>
			<path class="st0" d="M178,82.8c2,0.6,3.3,1,5.7,1.1c0.4,0,1.1,0.1,2.4,0.1c0.3,0,0.6,0,0.9,0.1c0.3,0,0.9,0.1,1.4-0.2     c0.5-0.2,1-0.6,1.2-1.1c0.1-0.3,0.2-0.5,0.3-0.8l0-0.2l0-0.2l0-0.3c0.1-1.7,0.2-3.5,0.3-5.1c0-0.8,0.1-1.6,0.1-2.3     c0-0.4,0-0.7,0.1-1l0-0.2c0-0.1,0-0.2,0-0.3c0-0.2-0.1-0.4-0.1-0.6c-0.3-0.8-0.8-1.2-1.2-1.4c-0.4-0.2-0.7-0.2-0.7-0.2     c0,0-0.2,0-0.5,0c-0.3,0-0.6,0-1.1,0c-0.9,0-2.2,0-3.7,0c-1.5,0-3.1,0-4.7,0.1c-1.2,0.1-2.2,1.1-2.3,2.1l0,0.2l0,0.1l0,0.3     c0,0.2,0,0.4,0,0.5c0,0.3,0,0.7-0.1,1c-0.1,1.8-0.2,3-0.2,3.6c-0.1,1.2,0,2.1,0,3c0,0.5,0.3,1.1,0.7,1.5     C177,82.8,177.5,82.9,178,82.8c-0.5-0.2-0.8-0.5-1-0.8c-0.2-0.4-0.2-0.7-0.1-1c0.2-0.9,0.3-1.8,0.4-3c0-0.6,0.1-1.7,0.2-3.6     c0-0.6,0.1-1.3,0.1-2c0-0.4,0.4-0.8,0.8-0.8c1.6,0,3.2,0,4.6-0.1c1.5,0,2.8,0,3.7,0c0.5,0,0.8,0,1.1,0c0.2,0,0.2,0,0.3,0     c0,0,0.5,0,0.7,0.6c0,0.1,0,0.1,0,0.2c0,0,0,0.1,0,0.1l0,0.2c0,0.3,0,0.7-0.1,1c0,0.7-0.1,1.5-0.1,2.3c-0.1,1.7-0.2,3.5-0.3,5.1     l0,0.3l0,0.2l0,0.1c0,0.1-0.1,0.2-0.1,0.3c-0.1,0.2-0.3,0.3-0.5,0.4c-0.2,0.1-1.1,0-1.6,0c-1.4-0.1-2-0.1-2.4-0.1     C181.4,82.2,180,82.4,178,82.8z"/>
		</g>
	</g>
</g>
<g>
	<g>
		<g>
			<path class="st0" d="M180,48.5C180,48.5,180,48.5,180,48.5c0.3,0.2,0.7,0.7,0,1.2c0,0-0.1,0-0.1,0l-2.1-0.1l-2.6-0.1l-1.1-0.1     c0,0-1.9-0.2-3.2-0.5c-2.2-0.4-1.3-0.6,0.1-0.7c-0.1,0,3.3-0.1,3.3-0.1l1,0l2.6,0.1L180,48.5z"/>
		</g>
	</g>
</g>
<g>
	<g>
		<g>
			<path class="st0" d="M179.2,53C179.2,53,179.2,53,179.2,53c0.3,0.2,0.7,0.7,0,1.2c0,0-0.1,0-0.1,0l-2.1-0.1l-6.9-0.3l-1.1,0     c0,0-1.9-0.2-3.2-0.4c-2.2-0.4-1.3-0.6,0.1-0.7c-0.1,0,3.3-0.1,3.3-0.1l1,0l6.9,0.3L179.2,53z"/>
		</g>
	</g>
</g>
<g>
	<g>
		<g>
			<path class="st0" d="M179.4,58.3C179.4,58.3,179.4,58.3,179.4,58.3c0.3,0.2,0.7,0.7,0,1.2c0,0-0.1,0-0.1,0l-2.1-0.1l-14.8-0.7     c0,0-1.9-0.2-3.2-0.5c-2.2-0.4-1.3-0.6,0.1-0.7c-0.1,0,3.3-0.1,3.3-0.1l14.7,0.7L179.4,58.3z"/>
		</g>
	</g>
</g>
<g>
	<g>
		<g>
			<path class="st0" d="M179.2,64C179.2,64,179.2,64,179.2,64c0.3,0.2,0.7,0.7,0,1.2c0,0-0.1,0-0.1,0l-2.1-0.1l-16-0.9     c0,0-1.9-0.2-3.2-0.5c-2.2-0.4-1.3-0.6,0.1-0.7c-0.1,0,3.3-0.1,3.3-0.1l15.9,0.9L179.2,64z"/>
		</g>
	</g>
</g>
<g>
	<g>
		<g>
			<path class="st0" d="M171.4,69.3C171.5,69.3,171.5,69.3,171.4,69.3c0.3,0.2,0.7,0.7,0,1.2c0,0-0.1,0-0.1,0l-2.1-0.2l-6.5-0.5     l-1.1-0.1c0,0-1.9-0.3-3.2-0.6c-2.2-0.4-1.3-0.6,0.1-0.7c-0.1,0,3.3,0,3.3,0l1,0.1l6.5,0.5L171.4,69.3z"/>
		</g>
	</g>
</g>
<g>
	<g>
		<g>
			<path class="st0" d="M157.1,74.9C157,74.9,157,74.9,157.1,74.9c-0.3-0.2-0.7-0.7-0.1-1.2c0,0,0.1,0,0.1,0l2.1,0.1l7.2,0.2l1.8,0     l0.9,0l0.9,0l0.2,0c0,0.1,0,0.1,0,0.2l0,0.4l0,2.1l0,0.6c0,0.3,0,0.6,0,0.9l-1.5,0l-4.1-0.1l-4.1-0.1c0,0-1.9-0.2-3.2-0.4     c-2.2-0.3-1.3-0.6,0.1-0.7c-0.1,0,3.3-0.2,3.3-0.2l3.9,0.1l4.1,0.1l0.3,0l0-0.2l0-1.5l-2.6-0.1l-7.2-0.2L157.1,74.9z"/>
		</g>
	</g>
</g>
<g>
	<g>
		<g>
			<path class="st0" d="M186.5,76.1c-0.5,0-0.7,0-0.9,0.2c-0.2,0.3-1.2,1.6-1.2,1.6s-1,1.3-1.2,1.6c-0.2,0.2-0.1,0.5,0,0.9     c0.5,0,0.7,0,0.9-0.2c0.2-0.3,1.2-1.6,1.2-1.6s1-1.3,1.2-1.6C186.7,76.7,186.6,76.5,186.5,76.1z"/>
		</g>
	</g>
</g>
<g>
	<g>
		<g>
			<path class="st0" d="M184.8,74c-0.5,0-0.8,0.1-1.1,0.4c-0.3,0.3-1.6,2.1-1.6,2.1s-1.3,1.7-1.6,2.1c-0.2,0.3-0.2,0.6-0.1,1.1     c0.5,0,0.8-0.1,1.1-0.4c0.3-0.3,1.6-2.1,1.6-2.1s1.3-1.7,1.6-2.1C184.9,74.7,184.9,74.4,184.8,74z"/>
		</g>
	</g>
</g>
<g>
	<g>
		<g>
			<path class="st0" d="M181.3,74.2c-0.4-0.1-0.6-0.2-0.7-0.1c-0.1,0.1-0.5,0.7-0.5,0.7s-0.5,0.6-0.5,0.7c-0.1,0.1,0,0.3,0.3,0.6     c0.4,0.1,0.6,0.2,0.7,0.1c0.1-0.1,0.5-0.7,0.5-0.7s0.5-0.6,0.5-0.7C181.6,74.7,181.5,74.5,181.3,74.2z"/>
		</g>
	</g>
</g>
<g>
	<g>
		<g>
			<path class="st0" d="M78.4,23.9c0.3,1.5,0.6,2.5,1.3,4.2c0.7,1.5,2.5,5.3,4.3,9c1.3,2.7,2.6,5.4,3.7,7.8c0.6,1.2,1.1,2.2,1.5,3.2     c0.3,0.6,0.5,1.2,0.8,1.7l0.1,0.3c0.1,0,0.2-0.1,0.3-0.1c0.2-0.1,0.4-0.2,0.5-0.3c0.2-0.1,0.4-0.2,0.6-0.3     c7.5-3.6,9.6-4.7,9.6-4.7s0.9-0.5,3-1.5c1-0.5,2.3-1.1,3.9-1.9c0.8-0.4,1.7-0.8,2.6-1.3c0.2-0.1,0.5-0.2,0.7-0.4     c0.2-0.1,0.5-0.2,0.7-0.4c0.1-0.1,0.3-0.1,0.3-0.2l-0.2-0.4c-0.3-0.6-0.6-1.3-1-1.9c-2-4.1-7.1-14.4-8.6-17.3     c-0.8-1.6-1.4-2.4-2.4-3.6c0.3,1.5,0.6,2.5,1.4,4.1c1.4,2.9,6.5,13.2,8.5,17.3c0.2,0.4,0.4,0.9,0.6,1.3c0,0,0,0,0,0     c-0.2,0.1-0.5,0.2-0.7,0.4c-1,0.5-1.8,0.9-2.6,1.3c-1.6,0.8-2.9,1.4-3.9,1.9c-2.1,1-3,1.5-3,1.5s-2.2,1.1-9.6,4.7     c-0.1,0-0.1,0.1-0.2,0.1l-0.1,0.1l0,0l0,0c0.1,0.2-0.2-0.5-0.4-0.9c-0.4-0.9-0.9-2-1.5-3.2c-1.1-2.3-2.4-5.1-3.7-7.8     c-1.8-3.8-3.5-7.5-4.3-9C80,26,79.4,25.1,78.4,23.9z"/>
		</g>
	</g>
</g>
<g>
	<g>
		<g>
			<path class="st0" d="M96.9,16c-1.5,0.2-2.6,0.4-4.2,1.1c-0.3,0.1-0.7,0.3-1.7,0.7c-0.7,0.3-2.5,1-2.5,1s-1.5,0.6-2.3,0.9     c-1.3,0.5-2.1,0.8-2.5,1c-1.7,0.7-2.5,1.3-3.8,2.2c1.5-0.2,2.6-0.4,4.2-1.1c0.4-0.2,1.2-0.5,2.5-1c0.8-0.3,2.3-0.9,2.3-0.9     s1.8-0.7,2.5-1c1-0.4,1.4-0.6,1.7-0.7C94.8,17.4,95.7,16.9,96.9,16z"/>
		</g>
	</g>
</g>
<g>
	<g>
		<g>
			<path class="st0" d="M98.8,21.1c-1.5,0.3-2.5,0.5-4.2,1.2c-0.3,0.1-0.7,0.3-1.7,0.7c-0.3,0.1-1,0.5-1,0.5s-0.6,0.3-1,0.4     c-1.3,0.6-2,0.9-2.4,1.1c-1.6,0.7-2.5,1.3-3.7,2.3c1.5-0.3,2.5-0.5,4.2-1.2c0.4-0.2,1.2-0.5,2.4-1.1c0.3-0.2,1-0.4,1-0.4     s0.7-0.3,1-0.5c0.9-0.4,1.4-0.6,1.7-0.7C96.7,22.7,97.6,22.1,98.8,21.1z"/>
		</g>
	</g>
</g>
<g>
	<g>
		<g>
			<path class="st0" d="M100.8,25c-1.5,0.3-2.5,0.5-4.2,1.2c-0.3,0.1-0.7,0.3-1.7,0.7c-0.3,0.1-1,0.5-1,0.5s-0.6,0.3-1,0.4     c-1.3,0.6-2,0.9-2.4,1.1c-1.6,0.7-2.5,1.3-3.7,2.3c1.5-0.3,2.5-0.5,4.2-1.2c0.4-0.2,1.2-0.5,2.4-1.1c0.3-0.2,1-0.4,1-0.4     s0.7-0.3,1-0.5c0.9-0.4,1.4-0.6,1.7-0.7C98.7,26.5,99.6,25.9,100.8,25z"/>
		</g>
	</g>
</g>
<g>
	<g>
		<g>
			<path class="st0" d="M93.8,33.5c-0.4-0.2-0.6-0.4-0.9-0.2c-0.3,0.1-1.8,0.8-1.8,0.8s-1.5,0.7-1.8,0.8c-0.3,0.1-0.4,0.4-0.4,0.8     c0.4,0.2,0.6,0.4,0.9,0.2c0.3-0.1,1.8-0.8,1.8-0.8s1.5-0.7,1.8-0.8C93.6,34.2,93.7,34,93.8,33.5z"/>
		</g>
	</g>
</g>
<g>
	<g>
		<g>
			<path class="st0" d="M104.9,33.5c-1.5,0.3-2.5,0.5-4.2,1.2c-0.3,0.1-0.7,0.3-1.7,0.7c-0.3,0.1-1,0.5-1,0.5s-0.6,0.3-1,0.4     c-1.3,0.6-2,0.9-2.4,1.1c-1.6,0.7-2.5,1.3-3.7,2.3c1.5-0.3,2.5-0.5,4.2-1.2c0.4-0.2,1.2-0.5,2.4-1.1c0.3-0.2,1-0.4,1-0.4     s0.7-0.3,1-0.5c0.9-0.4,1.4-0.6,1.7-0.7C102.8,35.1,103.7,34.5,104.9,33.5z"/>
		</g>
	</g>
</g>
<g>
	<g>
		<g>
			<path class="st0" d="M99.6,39.7c-0.5-0.2-0.8-0.3-1.2-0.1c-0.5,0.2-2.7,1.2-2.7,1.2s-2.2,1-2.7,1.2c-0.4,0.2-0.6,0.5-0.8,1     c0.5,0.2,0.8,0.3,1.2,0.1c0.5-0.2,2.7-1.2,2.7-1.2s2.2-1,2.7-1.2C99.3,40.5,99.4,40.2,99.6,39.7z"/>
		</g>
	</g>
</g>
<g>
	<polygon points="29.6,146.5 27.5,171.7 29.7,171.7 32.8,159.1  "/>
</g>
<path class="st8" d="M51.9,122.7c0,0-12.8-4.6-16.3-19.3l3.9-3.1C39.6,100.3,40.2,113.4,51.9,122.7z"/>
<path class="st8" d="M156.4,102.7c0,0-7.5,12.4-13.2,15c0,0,9-11.7,9.6-16.4L156.4,102.7z"/>
</svg>